<?xml version="1.0" encoding="utf-8"?>
<!-- Generator: Adobe Illustrator 16.0.0, SVG Export Plug-In . SVG Version: 6.00 Build 0)  -->
<!DOCTYPE svg PUBLIC "-//W3C//DTD SVG 1.1//EN" "http://www.w3.org/Graphics/SVG/1.1/DTD/svg11.dtd">
<svg version="1.1" id="Layer_1" xmlns="http://www.w3.org/2000/svg" xmlns:xlink="http://www.w3.org/1999/xlink" x="0px" y="0px"
	 width="628.469px" height="560px" viewBox="0 0 628.469 560" enable-background="new 0 0 628.469 560" xml:space="preserve">
<g>
	<path d="M218.763,203.893c0,1.365,0,2.286,0,3.207c0,50.677,0.001,101.354,0.001,152.029c0,4.014,0.005,4.035-3.922,5.156
		c-7.974,2.279-15.973,4.473-23.928,6.812c-9.046,2.662-18.044,5.484-27.086,8.158c-5.968,1.765-11.984,3.367-17.965,5.09
		c-2.442,0.703-4.847,1.539-7.276,2.295c-0.682,0.211-1.389,0.343-2.296,0.562c0-112.872,0-225.48,0-338.439
		c58.98,40.305,117.771,80.479,176.944,120.917c0.12-1.229,0.269-2.041,0.27-2.852c0.014-37.772,0.027-75.544-0.021-113.316
		c-0.003-1.684,0.396-2.165,2.105-2.164c56.593,0.051,113.185,0.051,169.774,0.058c0.949,0,1.898,0,2.893,0.451
		c-2.781,1.916-5.561,3.831-8.341,5.746c-7.344,5.061-14.672,10.144-22.036,15.177c-8.469,5.789-16.98,11.515-25.45,17.304
		c-10.464,7.15-20.895,14.348-31.353,21.504c-6.586,4.506-13.215,8.951-19.792,13.469c-6.409,4.402-12.763,8.885-19.169,13.288
		c-4.866,3.342-9.801,6.586-14.67,9.924c-6.637,4.55-13.239,9.148-19.86,13.722c-3.254,2.247-6.476,4.547-9.796,6.689
		c-1.139,0.733-1.387,1.546-1.387,2.802c0.037,27.893,0.033,55.785,0.033,83.677c0.002,2.755-0.014,5.51-0.002,8.265
		c0,0.302,0.125,0.604,0.26,1.208c31.195-20.24,62.191-40.352,93.52-60.678c0.063,1.16,0.148,1.994,0.148,2.828
		c-0.002,51.551-0.008,103.103-0.047,154.653c-0.002,1.314,0.389,1.808,1.686,2.183c10.022,2.897,20.003,5.938,30.017,8.871
		c5.198,1.521,10.447,2.867,15.649,4.375c5.01,1.451,9.98,3.031,14.981,4.512c5.265,1.557,10.558,3.025,15.806,4.633
		c0.664,0.205,1.138,1.027,1.7,1.562c-0.61,0.293-1.222,0.846-1.83,0.846c-57.263,0.045-114.523,0.049-171.786,0.055
		c-0.471,0-0.945-0.032-1.41,0.021c-1.202,0.137-1.727-0.281-1.644-1.576c0.104-1.606,0.037-3.225,0.037-4.838
		c-0.011-38.445-0.031-76.89,0.007-115.333c0.002-1.392-0.383-2.233-1.523-2.958c-6.728-4.28-13.438-8.589-20.137-12.914
		c-7.433-4.801-14.828-9.661-22.276-14.438c-8.745-5.609-17.542-11.137-26.293-16.737
		C235.24,214.544,227.215,209.341,218.763,203.893z"/>
	<path d="M489.955,500.624c0,1.373,0,2.619,0,4.025c-117.85,0-235.658,0-353.666,0c0-1.275,0-2.611,0-4.025
		C254.209,500.624,372.016,500.624,489.955,500.624z"/>
	<g>
		<path d="M143.478,433.597c0,15.427,0,30.854,0,46.605c-2.224,0-4.265,0.044-6.3-0.046c-0.31-0.014-0.71-0.59-0.856-0.985
			c-0.148-0.404-0.034-0.905-0.034-1.363c0-18.146,0.021-36.292-0.037-54.438c-0.006-1.686,0.354-2.45,2.131-2.197
			c0.889,0.126,1.839,0.164,2.71-0.017c2.295-0.476,3.566,0.839,4.777,2.471c4.143,5.575,8.316,11.127,12.483,16.683
			c2.806,3.742,5.694,7.427,8.398,11.243c1.063,1.501,1.564,1.004,2.389-0.107c4.692-6.321,9.411-12.619,14.146-18.908
			c2.617-3.473,5.247-6.94,7.963-10.333c0.435-0.543,1.341-0.89,2.066-0.962c1.474-0.15,2.982,0.054,4.46-0.085
			c1.424-0.136,1.804,0.442,1.79,1.771c-0.046,4.322-0.014,8.646-0.012,12.971c0.006,14.147-0.01,28.299,0.051,42.448
			c0.006,1.495-0.443,1.994-1.876,1.876c-1.222-0.1-2.467-0.113-3.686,0.002c-1.59,0.15-1.935-0.53-1.929-2.033
			c0.055-14.479,0.04-28.953,0.043-43.433c0-0.32-0.029-0.646-0.064-1.416c-0.76,0.677-1.39,1.077-1.814,1.638
			c-4.901,6.486-9.763,13.007-14.656,19.499c-2.108,2.799-4.31,5.528-6.386,8.353c-1.052,1.432-1.889,1.272-2.863-0.017
			c-4.43-5.855-8.869-11.704-13.318-17.544c-3.021-3.967-6.066-7.913-9.101-11.869C143.793,433.465,143.636,433.532,143.478,433.597
			z"/>
		<path d="M368.016,480.189c-2.289,0-4.291,0.062-6.281-0.057c-0.395-0.023-0.987-0.714-1.066-1.169
			c-0.164-0.954-0.044-1.957-0.044-2.938c-0.004-17.427-0.007-34.854-0.009-52.282c0-2.587,0.003-2.57,2.518-2.568
			c9.193,0.008,18.395-0.223,27.577,0.104c3.995,0.144,8.203,0.79,11.875,2.301c11.876,4.88,13.354,18.28,6.713,26.172
			c-2.921,3.469-6.906,5.413-11.36,6.261c-0.671,0.127-1.336,0.297-2.438,0.546c6.734,7.941,13.203,15.571,20.005,23.596
			c-3.297,0-6.163,0.025-9.028-0.036c-0.358-0.008-0.771-0.444-1.052-0.775c-4.201-4.962-8.377-9.943-12.573-14.91
			c-1.717-2.03-3.412-4.082-5.233-6.015c-0.459-0.487-1.356-0.766-2.058-0.773c-5.309-0.059-10.619,0.002-15.928-0.043
			c-1.262-0.012-1.66,0.379-1.646,1.692c0.067,6.224,0.029,12.448,0.029,18.672C368.016,478.604,368.016,479.241,368.016,480.189z
			 M380.77,427.454c0,0.004,0,0.01,0,0.014c-3.688,0-7.377,0.02-11.064-0.012c-1.168-0.01-1.746,0.282-1.73,1.664
			c0.067,6.875,0.063,13.753,0.014,20.628c-0.012,1.538,0.523,2.053,2.05,2.033c5.95-0.074,11.909,0.098,17.858-0.091
			c4.584-0.146,9.104-0.725,13.064-3.564c5.938-4.258,6.08-13.046,0.249-17.4c-3.228-2.406-6.867-3.186-10.733-3.258
			C387.242,427.406,384.005,427.454,380.77,427.454z"/>
		<path d="M489.955,480.153c-2.771,0-5.255,0.055-7.733-0.057c-0.41-0.019-0.915-0.698-1.165-1.183
			c-2.104-4.104-4.296-8.172-6.16-12.387c-0.67-1.513-1.54-1.655-2.812-1.653c-8.286,0.016-16.566,0.018-24.851,0.021
			c-1.426,0.003-2.902,0.26-4.263-0.046c-4.635-1.038-5.698,2.397-7.163,5.503c-1.441,3.055-3.003,6.054-4.541,9.06
			c-0.153,0.305-0.508,0.71-0.775,0.716c-2.422,0.058-4.844,0.032-7.555,0.032c2.669-5.331,5.158-10.309,7.646-15.289
			c4.356-8.716,8.704-17.438,13.064-26.151c2.813-5.626,5.678-11.23,8.449-16.877c0.614-1.245,1.467-1.441,2.743-1.616
			c3.82-0.521,5.873,0.818,7.572,4.543c4.665,10.218,9.889,20.174,14.914,30.222c4.005,8.008,8.046,15.999,12.071,23.999
			C489.533,479.256,489.658,479.528,489.955,480.153z M456.396,428.695c-0.843,1.612-1.339,2.51-1.79,3.432
			c-4.071,8.343-8.129,16.69-12.212,25.027c-0.76,1.55-0.573,1.91,1.213,1.912c8.676,0.004,17.35,0.004,26.027-0.011
			c0.399-0.002,0.798-0.155,1.389-0.279C466.148,448.752,461.378,438.939,456.396,428.695z"/>
		<path d="M279.353,480.186c-2.843,0-5.277,0.098-7.693-0.071c-0.563-0.04-1.243-0.878-1.57-1.511
			c-2.122-4.09-4.117-8.25-6.272-12.322c-0.337-0.637-1.281-1.337-1.948-1.34c-10.935-0.08-21.872-0.069-32.807,0.002
			c-0.599,0.003-1.455,0.571-1.749,1.121c-2.117,3.942-4.188,7.921-6.123,11.959c-0.757,1.579-1.592,2.438-3.463,2.222
			c-1.709-0.196-3.458-0.042-5.534-0.042c1.391-2.855,2.607-5.397,3.859-7.919c4.217-8.493,8.419-16.994,12.682-25.464
			c3.704-7.36,7.737-14.565,11.112-22.074c1.535-3.414,3.205-4.779,6.98-4.606c2.614,0.12,3.274,1.619,4.114,3.285
			c3.945,7.827,7.82,15.688,11.728,23.533c5.214,10.468,10.435,20.933,15.659,31.396
			C278.555,478.809,278.824,479.243,279.353,480.186z M260.354,459.053c-5.026-10.217-9.649-20.152-14.792-30.272
			c-0.81,1.588-1.318,2.558-1.801,3.54c-4.064,8.271-8.116,16.551-12.188,24.817c-0.791,1.606-0.625,1.957,1.131,1.955
			c5.306-0.004,10.614-0.027,15.92-0.038C252.361,459.047,256.096,459.053,260.354,459.053z"/>
		<path d="M344.354,440.944c0,5.308,0.125,10.618-0.028,15.921c-0.255,8.814-3.556,16.163-11.468,20.411
			c-3.453,1.853-7.494,2.962-11.392,3.503c-6.736,0.937-13.482,0.271-19.724-2.755c-6.017-2.917-10.055-7.7-11.625-14.335
			c-0.579-2.456-0.913-5.029-0.938-7.555c-0.104-10.941-0.016-21.884-0.093-32.824c-0.014-1.741,0.471-2.198,2.185-2.167
			c5.224,0.104,5.226,0.022,5.226,5.331c0,9.175-0.133,18.35,0.071,27.518c0.069,3.156,0.644,6.402,1.592,9.411
			c1.685,5.339,5.549,8.749,10.822,10.312c6.274,1.858,12.575,1.751,18.54-1.118c4.613-2.22,7.586-6.093,8.547-11.198
			c0.576-3.061,0.777-6.229,0.811-9.352c0.104-9.63,0.087-19.265-0.002-28.895c-0.016-1.641,0.523-1.965,1.982-1.992
			c5.481-0.1,5.481-0.144,5.481,5.435c0,4.782,0,9.565,0,14.35C344.346,440.944,344.35,440.944,344.354,440.944z"/>
	</g>
	<g>
		<path d="M312.292,550.202c-7.212-0.037-13.36-3.881-15.766-10.041c-2.213-5.666-1.199-12.992,4.416-17.611
			c8.586-7.062,21.607-4.805,27.054,4.871c3.977,7.066,0.788,17.299-6.629,20.586c-2.821,1.25-5.928,1.855-8.906,2.758
			C312.404,550.577,312.349,550.39,312.292,550.202z M312.469,519.337c-2.369,0.639-4.865,0.988-7.084,1.969
			c-9.353,4.131-11.518,15.797-4.404,23.113c3.489,3.59,7.901,4.703,12.692,4.469c8.337-0.405,14.117-5.807,14.507-13.987
			C328.579,526.528,321.393,519.688,312.469,519.337z"/>
		<path d="M337.219,549.177c-0.064-0.553-0.184-1.104-0.185-1.658c-0.011-8.727,0.022-17.452-0.033-26.178
			c-0.009-1.457,0.36-2.031,1.901-2.004c4.632,0.078,9.272-0.143,13.893,0.1c2.208,0.115,4.491,0.744,6.531,1.625
			c3.281,1.414,4.822,4.074,4.4,7.765c-0.397,3.481-2.791,5.211-5.664,6.401c-1.455,0.605-3.084,0.791-5.082,1.275
			c3.619,4.174,7.158,8.256,10.695,12.338c-0.104,0.17-0.208,0.34-0.312,0.508c-0.752-0.448-1.672-0.746-2.227-1.371
			c-2.896-3.254-5.746-6.555-8.512-9.918c-1.014-1.233-2.023-1.907-3.723-1.812c-2.879,0.16-5.771,0.104-8.656,0.014
			c-1.521-0.047-1.963,0.519-1.913,2.002c0.104,3.084,0.058,6.174,0.015,9.263c-0.008,0.581-0.287,1.157-0.44,1.737
			C337.68,549.233,337.449,549.204,337.219,549.177z M346.572,520.38c-0.006,0.066-0.012,0.137-0.016,0.203
			c-2.08,0-4.164,0.07-6.24-0.023c-1.526-0.067-2,0.576-1.977,2.021c0.061,3.623,0.094,7.248-0.008,10.871
			c-0.041,1.512,0.596,1.793,1.902,1.768c3.42-0.063,6.849,0.062,10.266-0.069c2.125-0.082,4.292-0.289,6.343-0.818
			c3.361-0.865,5.482-3.469,5.571-6.336c0.091-2.951-1.816-5.318-5.284-6.531c-0.505-0.176-1.026-0.361-1.554-0.404
			C352.576,520.81,349.573,520.601,346.572,520.38z"/>
		<path d="M212.277,536.685c3.485,4.021,7,8.072,10.516,12.125c-0.106,0.187-0.212,0.369-0.317,0.554
			c-0.627-0.357-1.401-0.582-1.857-1.092c-3.037-3.402-6.054-6.824-8.969-10.33c-0.938-1.13-1.855-1.74-3.385-1.685
			c-2.951,0.111-5.911,0.047-8.867-0.002c-1.337-0.022-1.924,0.402-1.875,1.867c0.103,3.088,0.045,6.182,0.015,9.271
			c-0.005,0.595-0.188,1.185-0.289,1.773c-0.217,0.012-0.435,0.023-0.651,0.035c-0.135-0.558-0.386-1.111-0.387-1.668
			c-0.021-8.734,0.013-17.47-0.032-26.203c-0.008-1.451,0.408-2.027,1.944-2c4.635,0.08,9.272-0.01,13.908,0.047
			c2.944,0.035,5.628,0.869,8.085,2.617c4.094,2.91,3.809,9.949-1.207,12.401C216.911,535.372,214.683,535.872,212.277,536.685z
			 M205.46,535.202c0.016,0.127,0.032,0.256,0.047,0.385c3.577-0.44,7.225-0.578,10.709-1.406c3.584-0.85,5.475-3.618,5.351-6.643
			c-0.126-3.094-2.796-6.041-6.726-6.406c-5.264-0.487-10.582-0.399-15.877-0.533c-1.353-0.034-1.417,0.953-1.417,1.953
			c0,3.695,0.043,7.394-0.037,11.086c-0.025,1.181,0.42,1.576,1.498,1.568C201.16,535.192,203.31,535.202,205.46,535.202z"/>
		<path d="M381.191,519.364c3.36-0.109,7.447-0.144,11.328,1.58c7.506,3.334,10.943,8.979,9.354,16.629
			c-1.272,6.125-5.737,9.83-11.641,10.844c-5.303,0.91-10.813,0.629-16.232,0.853c-1.378,0.059-1.184-0.992-1.184-1.843
			c-0.012-4.907-0.008-9.813-0.008-14.721c0-3.898,0.033-7.797-0.019-11.695c-0.017-1.198,0.354-1.709,1.606-1.666
			C376.411,519.413,378.43,519.364,381.191,519.364z M374.116,534.226c0,3.966,0.086,7.931-0.04,11.89
			c-0.053,1.658,0.562,2.106,2.076,2.069c2.82-0.073,5.643-0.063,8.464-0.03c3.962,0.047,7.532-1.152,10.808-3.306
			c4.385-2.881,6.463-8.789,4.942-13.838c-1.728-5.735-6.041-8.731-11.485-9.721c-4.371-0.795-8.939-0.508-13.42-0.691
			c-1.246-0.053-1.355,0.763-1.352,1.738C374.133,526.3,374.121,530.263,374.116,534.226z"/>
		<path d="M233.261,533.646c6.926,0,13.629,0,20.334,0c0.021,0.232,0.043,0.464,0.064,0.697c-0.625,0.125-1.251,0.357-1.878,0.361
			c-5.372,0.021-10.746,0.084-16.114-0.047c-1.978-0.049-2.533,0.584-2.45,2.516c0.152,3.543,0.043,7.094,0.043,11.025
			c7.725,0,15.247,0,22.77,0c0.027,0.246,0.054,0.494,0.08,0.74c-0.551,0.131-1.103,0.375-1.655,0.379
			c-6.782,0.02-13.565-0.049-20.346,0.035c-1.817,0.021-2.248-0.646-2.233-2.353c0.074-8.527,0.054-17.057,0.017-25.584
			c-0.006-1.356,0.224-2.104,1.853-2.088c6.849,0.072,13.699,0.025,20.549,0.045c0.471,0,0.941,0.178,1.413,0.271
			c0.003,0.203,0.006,0.404,0.009,0.605c-0.708,0.111-1.416,0.318-2.124,0.32c-6.111,0.03-12.222,0.063-18.333,0
			c-1.472-0.017-2.055,0.403-2.022,1.93C233.313,526.052,233.261,529.601,233.261,533.646z"/>
		<path d="M407.887,544.548c0.409,0.176,0.879,0.275,1.221,0.539c4.938,3.814,10.513,4.439,16.432,3.297
			c4.436-0.856,7.06-4.608,5.513-8.293c-0.549-1.307-1.971-2.662-3.303-3.143c-3.069-1.107-6.339-1.648-9.504-2.509
			c-1.935-0.522-3.93-0.991-5.712-1.864c-5.208-2.552-5.562-8.4-0.753-11.787c5.562-3.92,14.488-2.455,19.394,1.01
			c0.191,0.135,0.287,0.41,0.256,1.119c-0.656-0.188-1.377-0.26-1.963-0.58c-4.285-2.33-8.812-3.457-13.563-2.025
			c-1.764,0.531-3.52,1.732-4.795,3.087c-2.343,2.479-1.524,6.467,1.656,7.668c3.613,1.362,7.446,2.129,11.166,3.217
			c1.731,0.506,3.443,1.102,5.121,1.76c2.347,0.92,3.569,2.748,3.834,5.211c0.302,2.805-0.803,5.051-3.126,6.529
			c-5.042,3.211-10.443,3.096-15.869,1.209c-1.936-0.674-3.724-1.793-5.533-2.791c-0.411-0.228-0.637-0.789-0.947-1.199
			C407.568,544.851,407.728,544.698,407.887,544.548z"/>
		<path d="M289.886,524.267c-0.599-0.336-1.232-0.622-1.789-1.018c-5.973-4.234-12.2-4.859-18.7-1.314
			c-5.113,2.791-8.097,8.802-7.197,14.369c1.029,6.373,5.452,11.041,11.475,12.181c5.416,1.024,10.389,0.192,14.805-3.285
			c0.492-0.389,1.166-0.549,2.023-0.935c-1.074,3.586-10.396,6.941-16.393,5.701c-8.546-1.766-13.784-8.426-13.48-16.283
			c0.279-7.227,6.177-13.674,13.901-15.039C280.589,517.573,288.794,520.312,289.886,524.267z"/>
	</g>
</g>
</svg>
