<?xml version="1.0" encoding="utf-8"?>
<!-- Generator: Adobe Illustrator 16.0.0, SVG Export Plug-In . SVG Version: 6.00 Build 0)  -->
<!DOCTYPE svg PUBLIC "-//W3C//DTD SVG 1.1//EN" "http://www.w3.org/Graphics/SVG/1.1/DTD/svg11.dtd">
<svg version="1.1" id="Layer_1" xmlns="http://www.w3.org/2000/svg" xmlns:xlink="http://www.w3.org/1999/xlink" x="0px" y="0px"
	 width="600px" height="400px" viewBox="0 0 600 400" enable-background="new 0 0 600 400" xml:space="preserve">
<g>
	<polygon fill="#D80E0E" points="333.511,83.628 345.737,70.954 367.363,66.789 368.661,82.754 359.269,98.812 	"/>
	<g>
		<path d="M317.647,118.743c4.883,4.899,10.849,8.153,16.932,11.229c2.265,1.146,4.159,1.006,5.762-1.268
			c2.328-3.316,4.761-6.566,7.294-9.727c0.393-0.484,1.614-0.586,2.362-0.43c1.188,0.258,3.216,1.409,3.303,1.26
			c1.077-1.844,2.873-4.062,2.528-5.785c-0.871-4.318-1.142-8.354,0.597-12.474c0.214-0.515-0.132-1.6-0.586-2.017
			c-5.27-4.809-10.882-9.112-18.045-10.708c-1.708-0.379-3.521-0.452-5.271-0.409c-0.776,0.018-1.754,0.491-2.271,1.079
			c-7.064,8.011-13.845,16.284-21.166,24.054c-4.345,4.614-3.256,8.635-0.504,13.25c4.07,6.833,7.945,13.779,11.845,20.713
			c0.444,0.797,0.515,1.809,0.753,2.725c-0.351,0.197-0.697,0.396-1.053,0.594c-2.183-2.779-4.448-5.497-6.541-8.344
			c-4.238-5.762-8.283-11.668-12.607-17.363c-2.929-3.854-3.068-3.838-0.019-7.488c6.354-7.595,12.604-15.277,19.054-22.793
			c7.193-8.386,14.505-16.676,21.927-24.86c0.988-1.087,2.872-1.592,4.436-1.885c9.967-1.861,19.957-3.59,30.341-5.433
			c-1.683-4.004-3.14-7.676-4.817-11.246c-0.237-0.496-1.633-0.814-2.364-0.649c-7.424,1.664-14.797,3.546-22.227,5.163
			c-6.041,1.316-12.143,2.386-18.23,3.479c-0.881,0.158-1.848-0.166-2.771-0.267c-0.076-0.274-0.154-0.551-0.235-0.827
			c1.085-0.535,2.12-1.238,3.262-1.578c7.713-2.291,15.457-4.479,23.171-6.761c1.83-0.541,3.588-1.307,6.21-2.28
			c-1.474-1.188-2.227-2.167-3.206-2.53c-11.938-4.427-23.928-8.708-35.853-13.178c-1.771-0.665-2.888-0.288-4.259,0.711
			c-8.352,6.096-16.836,12.016-25.102,18.219c-7.604,5.708-15.1,11.58-22.391,17.679c-1.381,1.155-2.162,3.686-2.233,5.622
			c-0.192,4.945,0.074,9.918,0.341,14.869c0.268,4.988,0.854,9.959,1.133,14.95c0.446,8.019,0.719,16.046,1.135,24.067
			c0.271,5.26,0.843,10.508,0.921,15.765c0.03,2.312,0.622,4.534-1.819,6.921c-3.828,3.746-6.577,8.629-9.641,13.127
			c-6.91,10.148-13.819,20.303-20.563,30.564c-4.27,6.5-8.3,13.165-12.329,19.815c-2.285,3.768-1.951,7.059,1.207,10.123
			c7.303,7.08,14.747,14.015,22.131,21.012c7.062,6.689,14.138,13.369,21.137,20.123c0.586,0.562,0.662,1.663,0.979,2.512
			c-0.321,0.184-0.639,0.36-0.954,0.54c-6.923-5.889-13.918-11.696-20.746-17.692c-9.233-8.104-18.324-16.377-27.513-24.527
			c-1.315-1.168-2.914-2.013-4.284-3.118c-1.666-1.35-2.254-2.799-0.848-4.918c10.109-15.246,20.041-30.615,30.209-45.824
			c4.512-6.756,9.164-13.457,14.266-19.773c3.243-4.011,4.446-8.25,4.309-13.171c-0.225-8.217-0.278-16.44-0.633-24.653
			c-0.486-11.195-1.156-22.385-1.83-33.572c-0.235-3.956-0.618-7.915-1.139-11.846c-0.255-1.901,0.523-2.939,1.949-3.909
			c5.34-3.629,10.762-7.16,15.938-11.009c9.08-6.748,18.002-13.693,26.985-20.57c3.788-2.902,7.519-5.881,11.357-8.712
			c0.57-0.417,1.786-0.534,2.409-0.22c6.057,3.034,11.835,6.739,18.107,9.189c11.271,4.397,22.818,8.059,34.254,12.025
			c1.799,0.624,2.97,1.565,3.766,3.567c2.138,5.383,4.733,10.584,7.177,15.9c-4.561,0.71-9.306,1.452-14.27,2.224
			c0.762,4.667,1.715,8.967,2.052,13.313c0.149,1.93-0.784,4.015-1.504,5.926c-0.858,2.289-2.217,4.401-2.981,6.714
			c-0.745,2.237-1.651,3.972-4.11,4.733c-2.102,0.646-3.348,2.162-3.294,4.57c0.072,3.432-0.269,6.896,0.113,10.289
			c0.445,3.96-1.785,6.604-4.074,9.041c-0.708,0.754-3.064-0.029-4.667-0.109c-0.139-0.336-0.282-0.668-0.418-1.007
			c-1.609,2.353-3.247,4.692-4.83,7.066c-1.08,1.616-2.225,3.213-3.097,4.942c-1.013,2.002-2.459,2.176-4.364,1.637
			c-1.937-0.547-3.917-0.939-6.39-1.518c0.091,4.896-0.097,9.463,0.312,13.969c1.22,13.57,2.758,27.107,4.011,40.672
			c1.209,13.028,2.296,26.074,3.283,39.12c0.418,5.554,0.37,11.139,0.67,16.699c0.634,11.842,1.407,23.678,1.987,35.522
			c0.062,1.274-0.787,2.599-1.214,3.896c-0.559-1.251-1.517-2.473-1.624-3.769c-1.295-15.872-2.393-31.763-3.693-47.636
			c-0.922-11.19-2.124-22.36-3.119-33.55c-0.521-5.896-0.831-11.817-1.291-17.724c-0.608-7.851-1.336-15.687-1.893-23.537
			c-0.436-6.175-0.643-12.366-1.014-18.543c-0.28-4.62-1.148-8.83-5.811-11.434c-1.895-1.058-3.254-3.224-4.562-5.093
			c-0.588-0.83-0.452-2.172-0.646-3.277C316.979,118.857,317.313,118.801,317.647,118.743z M359.592,96.953
			c0.793-1.375,2.112-2.631,2.119-3.897c0.022-2.749,1.167-4.705,2.999-6.487c3.428-3.342,3.466-3.398-0.018-6.477
			c-2.534-2.244-5.197-4.341-8.027-6.694c2.854-1.482,4.955,0.382,7.238,0.879c0.83,0.185,1.72,0.107,2.584,0.146
			c-0.011-1.468,0.184-2.984-0.137-4.381c-0.116-0.494-1.548-1.066-2.291-0.967c-4.2,0.55-8.377,1.262-12.552,1.979
			c-1.551,0.264-3.453,0.225-4.528,1.123c-2.969,2.48-5.762,5.23-8.278,8.167c-1.903,2.219-1.202,3.758,1.746,4.526
			c4.172,1.091,7.925,2.92,11.229,5.703C354.037,92.558,356.473,94.448,359.592,96.953z"/>
		<path d="M346.437,184.659c0.017,0.928-0.051,1.872,0.066,2.79c1.161,9.014,2.42,18.015,3.512,27.039
			c1.437,11.843,2.737,23.704,4.108,35.557c1.016,8.789,2.259,17.557,3.016,26.368c0.667,7.84,0.736,15.727,1.198,23.59
			c0.203,3.511,0.811,7,1.068,10.514c0.384,5.306-0.283,6.313-5.419,7.199c-8.18,1.41-16.383,2.751-24.612,3.816
			c-8.856,1.144-17.74,2.531-26.647,2.753c-15.339,0.379-30.788,1.805-45.977-1.78c-8.927-2.112-17.802-4.446-26.679-6.742
			c-0.861-0.222-1.594-0.926-2.387-1.409c0.073-0.302,0.145-0.604,0.217-0.901c2.231,0.339,4.541,0.43,6.684,1.069
			c9.561,2.873,19.419,4.178,29.289,4.464c13.786,0.396,27.621,0.249,41.396-0.407c13.144-0.628,26.283-1.998,39.052-5.469
			c2.8-0.759,5.355-2.479,7.96-3.881c1.722-0.921,1.861-2.56,1.731-4.369c-0.944-12.786-1.623-25.595-2.777-38.365
			c-1.596-17.607-3.639-35.173-5.278-52.775c-1.112-11.972-1.889-23.977-2.773-35.967c-0.37-5.025-0.688-10.052-0.903-15.08
			c-0.034-0.806,0.619-1.635,0.951-2.454c0.574,0.656,1.445,1.222,1.676,1.98c2.175,7.28,4.456,14.541,6.303,21.911
			c4.282,17.059,8.271,34.191,12.508,51.265c4.136,16.644,8.295,33.287,12.726,49.859c1.727,6.462,4.189,12.732,6.364,19.075
			c1.188,3.448,1.034,3.816-2.522,4.719c-0.859,0.213-1.849,0.708-2.575,0.469c-1.064-0.354-2.625-1.086-2.822-1.926
			c-4.819-20.754-9.532-41.539-14.169-62.337c-3.536-15.87-6.938-31.771-10.411-47.657c-0.869-3.969-1.768-7.932-2.68-11.893
			c-0.091-0.394-0.362-0.744-0.548-1.113C346.861,184.598,346.649,184.628,346.437,184.659z"/>
		<path d="M288.308,293.048c-0.395-1.317-0.904-2.406-1.017-3.529c-1.58-15.646-3.089-31.301-4.651-46.95
			c-0.357-3.596-0.818-7.183-1.32-10.764c-0.082-0.59-0.504-1.277-0.979-1.649c-8.888-6.986-17.812-13.924-26.727-20.883
			c-1.521-1.19-2.745-2.515-1.401-5.056c2.829,1.695,5.588,3.325,8.327,4.991c8.389,5.086,16.743,10.225,25.162,15.252
			c1.576,0.941,2.076,2.111,2.148,3.862c0.404,10.413,0.893,20.826,1.375,31.238c0.438,9.44,0.932,18.877,1.326,28.317
			C290.624,289.659,290.829,291.64,288.308,293.048z"/>
		<path d="M344.991,104.326c-1.613,0.101-3.352,0.594-4.874,0.223c-3.117-0.76-5.517-2.756-6.861-5.726
			c-0.271-0.595,0.253-1.546,0.413-2.332c0.666,0.214,1.458,0.271,1.993,0.666C338.633,99.368,341.544,101.661,344.991,104.326z"/>
	</g>
</g>
<g>
	<path d="M225.896,358.887c0.758,1.324,1.307,2.479,1.094,4.042c-0.469,3.458-3.332,4.853-6.512,4.422l-10.137-1.374
		c-1.751-0.235-3.229-0.765-4.453-2.104c-1.107-1.182-1.805-2.967-1.586-4.579c0.2-1.475,1.204-2.652,2.816-2.433
		c1.336,0.182,2.017,1.398,1.847,2.642c-0.188,1.384,0.525,1.668,1.815,1.843l9.998,1.354c0.369,0.05,1.503,0.345,1.596-0.349
		c0.05-0.367-0.501-1.146-0.648-1.447l-13.052-22.462c-0.799-1.375-1.228-2.372-1.009-3.984c0.25-1.841,1.337-3.29,3.042-4.09
		c1.403-0.657,2.462-0.513,3.937-0.313l9.77,1.324c1.751,0.238,3.176,0.804,4.355,2.14c1.055,1.221,1.791,3.059,1.572,4.671
		c-0.199,1.476-1.099,2.571-2.758,2.348c-1.382-0.188-2.093-1.175-1.918-2.466c0.212-1.565-0.54-1.902-1.969-2.098l-9.77-1.32
		c-0.506-0.069-1.547-0.353-1.654,0.434c-0.056,0.414,0.377,1.035,0.522,1.336L225.896,358.887z"/>
	<path d="M260.845,349.022c0.667,1.901,0.834,3.279,0.604,5.266c-0.26,2.217-1.021,3.531-2.165,5.317l-5.24,8.001
		c-1.367,2.089-3.401,3.487-6.082,3.177c-2.679-0.313-4.337-2.146-5.187-4.491l-3.258-8.993c-0.701-2-1.141-3.457-0.883-5.673
		c0.232-1.986,0.711-3.287,1.799-4.986l5.69-8.649c1.362-2.042,3.442-3.438,6.028-3.133c2.586,0.299,4.293,2.138,5.146,4.438
		L260.845,349.022z M253.022,341.041c-0.282-0.782-0.438-1.455-1.408-1.569c-0.971-0.111-1.276,0.507-1.732,1.203l-5.131,7.873
		c-0.85,1.258-1.32,2.094-1.499,3.618c-0.14,1.2,0.041,2.062,0.429,3.138l3.41,9.293c0.248,0.685,0.484,1.46,1.408,1.567
		s1.334-0.592,1.732-1.201l5.457-8.258c0.627-0.956,1-1.756,1.142-2.956c0.178-1.524-0.089-2.446-0.626-3.865L253.022,341.041z"/>
	<path d="M290.899,340.98c0.115-1.482,0.83-2.268,2.498-2.138c1.67,0.128,2.252,1.015,2.139,2.498l-2.62,33.744l-6.119-0.473
		l-9.938-28.752l0.002-0.048l-0.092-0.009l-1.98,25.497c-0.115,1.482-0.829,2.267-2.498,2.139c-1.669-0.131-2.252-1.017-2.139-2.498
		l2.621-33.747l6.119,0.476l9.914,29.076l-0.047-0.004l0.094,0.009L290.899,340.98z"/>
	<path d="M308.589,343.364l-1.715,0.129c-1.531,0.115-2.871-0.343-3.004-2.104c-0.127-1.669,1.076-2.413,2.514-2.521l7.742-0.585
		c3.616-0.275,5.537,1.073,7.354,4.104l4.697,7.854c1.07,1.83,1.638,3.138,1.797,5.271c0.143,1.854-0.25,3.47-0.958,5.202
		l-3.581,8.758c-1.374,3.413-3.38,4.64-6.995,4.912l-7.697,0.581c-1.205,0.092-2.367-0.473-2.492-2.144
		c-0.128-1.67,0.936-2.401,2.143-2.493l2.226-0.168L308.589,343.364z M315.251,369.812l0.882-0.067
		c1.947-0.147,2.395-0.415,3.1-2.193l3.454-8.561c0.432-1.105,0.742-1.923,0.654-3.08c-0.12-1.578-0.695-2.42-1.446-3.716
		l-4.44-7.543c-1.124-1.921-1.537-1.842-3.67-1.682l-0.558,0.042L315.251,369.812z"/>
	<path d="M360.161,365.129c1.2-0.144,2.387,0.369,2.587,2.031c0.2,1.663-0.829,2.44-2.031,2.587l-20.499,2.465l-4.319-35.92
		l20.499-2.466c1.2-0.146,2.387,0.369,2.586,2.031c0.2,1.66-0.829,2.44-2.031,2.585l-15.881,1.911l1.325,11.034l6.787-0.815
		c1.2-0.145,2.388,0.368,2.586,2.03c0.2,1.662-0.827,2.442-2.03,2.587l-6.786,0.816l1.327,11.034L360.161,365.129z"/>
	<path d="M377.555,365.159c0.208,1.474-0.319,2.394-1.979,2.626c-1.657,0.232-2.419-0.505-2.628-1.979l-4.724-33.521l15.473-2.183
		c3.638-0.511,7.639,1.557,8.217,5.654l0.447,3.176c0.608,4.329-2.671,7.048-6.354,7.564l-4.234,0.599l12.448,13.366
		c0.604,0.62,1.371,1.403,1.495,2.279c0.185,1.29-0.754,2.312-2.041,2.494c-0.922,0.13-1.599-0.337-2.209-1.003L376.2,347.88
		l-1.058,0.148L377.555,365.159z M374.492,343.425l10.224-1.439c1.288-0.185,3.301-0.561,3.043-2.4l-0.447-3.178
		c-0.26-1.843-2.181-1.808-3.562-1.612l-10.269,1.446L374.492,343.425z"/>
</g>
</svg>
