<?xml version="1.0" encoding="utf-8"?>
<!-- Generator: Adobe Illustrator 16.0.0, SVG Export Plug-In . SVG Version: 6.00 Build 0)  -->
<!DOCTYPE svg PUBLIC "-//W3C//DTD SVG 1.1//EN" "http://www.w3.org/Graphics/SVG/1.1/DTD/svg11.dtd">
<svg version="1.1" id="Layer_1" xmlns="http://www.w3.org/2000/svg" xmlns:xlink="http://www.w3.org/1999/xlink" x="0px" y="0px"
	 width="600px" height="400px" viewBox="65.114 -27.256 600 400" enable-background="new 65.114 -27.256 600 400"
	 xml:space="preserve">
<text transform="matrix(1 0 0 1 249.8193 193.0073)" fill="#FAAA64" font-family="'OratorStd-Slanted'" font-size="57.6757">St tchup</text>
<text transform="matrix(1 0 0 1 263.085 219.5073)" fill="#396B75" font-family="'OratorStd-Slanted'" font-size="17.6387">FACTORY CAFE ACTIVITIES</text>
<g>
	<g>
		<path fill="#396B75" stroke="#000000" stroke-width="1.2887" stroke-miterlimit="10" d="M207.162,170.699
			c0.058,6.833-20.158,12.544-45.156,12.756c-24.999,0.212-45.31-5.155-45.367-11.987c-0.058-6.834,18.401-13.729,43.398-13.942
			C185.036,157.316,207.105,163.866,207.162,170.699z"/>
		
			<ellipse fill="#396B75" stroke="#000000" stroke-width="0.6522" stroke-miterlimit="10" cx="165.761" cy="220.446" rx="71.904" ry="18.052"/>
		<path fill="#396B75" d="M210.933,181.714c-4.343,23.097-24.173,49.119-48.555,47.465c-36.848-2.499-36.848-20.342-36.848-37.568
			c0-13.262,8.666-9.897,36.541-8.761C186.489,183.847,213.384,168.679,210.933,181.714z"/>
		<path d="M236.236,225.172c-8.47,6.312-18.613,8.029-28.522,10.378c-1.262,0.299-2.559,0.464-3.843,0.663
			c-0.301,0.045-0.621-0.027-1.842-0.097c5.055-1.393,9.419-2.159,13.416-3.814c4.249-1.76,8.499-3.915,12.108-6.719
			c3.71-2.885,3.421-6.582,0.009-9.775c-4.501-4.212-10.19-6.1-15.987-7.64c-0.702-0.188-1.641,0.25-2.395,0.573
			c-1.595,0.684-3.072,1.717-4.718,2.189c-4.959,1.425-8.324,4.829-11.101,8.329c1.622,1.634,4.512,1.387,4.791,5.111
			c-0.125,2.773-2.021,4.65-4.895,4.38c-0.181-0.017-0.708-0.245,0.073-0.917c2.208-2.162,1.418-2.817,1.121-3.824
			c-0.332-1.117-1.911-1.864-2.805-2.647c-15.044,10.986-31.408,9.698-47.924,6.141c-5.807-1.25-9.993-5.555-14-9.719
			c-12.238-12.714-18.402-27.897-18.465-45.585c-0.012-3.479,1.761-5.495,4.561-6.834c10.086-4.822,20.945-6.039,32.065-6.218
			c-1.25,0.244-2.497,0.5-3.749,0.726c-1.283,0.231-2.591,0.348-3.852,0.664c-4.939,1.238-9.897,2.419-14.773,3.871
			c-1.831,0.545-3.599,1.583-5.149,2.726c-3.05,2.248-3.026,4.906,0.015,7.189c2.253,1.691,4.377,2.54,7.66,1.519
			c18.177-5.658,36.786-5.755,55.452-3.052c4.914,0.711,9.726,2.175,14.546,3.446c2.906,0.767,8.937-2.516,9.125-5.489
			c0.08-1.252-0.816-3.205-1.855-3.775c-3.478-1.912-7.091-3.811-10.888-4.844c-5.105-1.389-10.43-1.958-15.655-2.901
			c-0.912-0.165-1.805-0.438-2.706-0.662c0.075-0.353,0.151-0.707,0.226-1.059c9.092,1.894,18.345,3.234,27.229,5.834
			c9.274,2.713,9.606,3.95,9.439,13.418c-0.013,0.744-0.001,1.485-0.001,2.195c12.604,2.378,14.093,18.336,0.213,27.734
			c8.048,2.497,16.426,3.842,23.079,9.354C239.334,218.651,239.66,222.564,236.236,225.172z M162.168,229.089
			c6.019-1.27,12.192-2.056,18.014-3.934c6.62-2.136,11.038-7.535,15.351-12.725c7.154-8.607,11.705-18.49,13.848-29.461
			c0.897-4.585-1.088-6.691-5.126-5.352c-13.061,4.331-26.576,5.479-40.176,5.434c-9.104-0.032-18.204-0.96-27.307-1.454
			c-5.711-0.311-10.026,2.985-10.092,8.602c-0.065,5.472,0.139,11.152,1.54,16.387c2.047,7.651,5.779,14.605,13.756,17.977
			C148.374,227.265,155.101,228.284,162.168,229.089z M205.629,204.065c1.427-0.831,2.544-1.491,3.668-2.135
			c4.082-2.34,6.86-5.66,7.579-10.412c0.586-3.886-1.049-5.646-4.646-5.525C210.051,191.958,207.909,197.821,205.629,204.065z"/>
		<path fill="#B7ACAF" d="M168.002,99.187c0-2.26,0.093-4.526-0.034-6.779c-0.079-1.388-0.316-2.821-0.791-4.121
			c-1.656-4.532-5.64-5.235-8.767-1.582c-2.943,3.439-4.257,7.543-4.389,11.987c-0.274,9.295,2.223,18.072,5.647,26.556
			c4.914,12.174,4.77,24.527,2.065,37.07c-0.115,0.528-0.298,1.044-0.483,1.554c-0.066,0.184-0.232,0.331-0.776,1.073
			c0.263-2.559,0.514-4.502,0.655-6.454c0.716-9.893-0.721-19.465-4.27-28.734c-3.699-9.661-6.81-19.466-6.737-29.975
			c0.037-5.25,1.661-10.045,4.538-14.386c2.536-3.825,6.721-5.71,9.93-4.694c2.804,0.886,6.054,6.532,5.615,10.281
			c-0.323,2.762-1.104,5.471-1.681,8.203C168.35,99.186,168.175,99.186,168.002,99.187z"/>
		<path d="M118.812,206.191c-4.956,1.748-9.959,3.378-14.847,5.3c-1.984,0.781-3.851,2.028-5.539,3.36
			c-3.954,3.112-4.273,7.231-0.079,9.975c4.374,2.86,9.278,5.235,14.274,6.764c16.312,4.992,33.204,6.224,50.159,6.722
			c1.504,0.045,3.011,0.007,4.516,0.007c-0.013,0.311-0.025,0.62-0.039,0.931c-10.782-0.606-21.582-0.977-32.338-1.883
			c-11.464-0.964-22.839-2.775-33.726-6.668c-3.423-1.224-6.762-3.001-9.73-5.104c-4.331-3.069-4.477-7.32,0.058-10.009
			c5.065-3.001,10.675-5.182,16.232-7.22c3.499-1.283,7.334-1.65,11.018-2.429C118.785,206.022,118.798,206.107,118.812,206.191z"/>
		<path fill="#B7ACAF" d="M171.176,119.384c-2.106-2.808-1.969-5.822-0.507-8.803c2.156-4.399,7.299-5.007,10.44-1.212
			c2.976,3.597,3.468,7.788,1.573,11.909c-1.147,2.496-3.107,4.654-4.885,6.813c-1.926,2.339-4.155,4.428-6.09,6.762
			c-4.189,5.052-5.92,10.465-1.892,16.557c-4.16-4.138-4.621-9.058-2.372-13.985c1.549-3.393,4.032-6.38,6.248-9.442
			c1.33-1.838,2.961-3.457,4.426-5.201c0.556-0.662,1.076-1.366,1.518-2.107c2.044-3.417,1.794-7.604-1.146-9.713
			c-1.269-0.908-3.748-1.117-5.226-0.522C170.571,111.525,170.014,115.301,171.176,119.384z"/>
		<path fill="#B7ACAF" d="M151.933,134.442c1.197-4.467,0.129-7.106-2.971-8.171c-3.007-1.033-6.481,0.696-7.634,3.798
			c-1.121,3.018,0.681,4.984,2.591,6.796c3.142,2.981,6.513,5.729,9.554,8.805c2.375,2.402,4.473,5.188,3.912,8.89
			c-0.277,1.826-1.069,3.574-2.095,5.344c2.895-7.136-1.918-10.876-6.206-14.766c-2.96-2.687-6.286-5.002-9.04-7.877
			c-2.659-2.775-2.776-6.386-1.03-9.316c1.868-3.135,5.141-4.546,8.893-4.083C151.991,124.366,156.112,129.959,151.933,134.442z"/>
		<path d="M153.868,232.311c-8.815,0.796-17.993-0.936-26.174-4.911c-2.933-1.424-2.846-3.641,0.039-5.265
			c0.907-0.509,1.939-0.794,3.144-1.272c2.515,0-2.358,1.73-1.818,3.587c0.448,1.532,2.412,2.631,3.883,3.09
			c9.344,2.91,11.065,2.868,16.944,3.696C155.918,232.086,152.811,232.221,153.868,232.311z"/>
		<path fill="#371200" d="M198.854,176.345c2.72,1.015-17.098,5.186-36.262,5.186s-40.352-3.415-36.839-5.422
			c4.064-2.322,17.288-4.994,36.149-5.038C181.21,171.025,195.055,174.928,198.854,176.345z"/>
		<path fill="#5A3010" d="M137.596,175.315c-0.031-0.248-0.063-0.496-0.094-0.743c-2.45,0.716-4.898,1.433-7.348,2.15
			c0.024,0.266,0.046,0.533,0.071,0.799c2.663,0.751,5.202,1.042,7.865,1.794c0.08-0.23,0.281,0.001,0.361-0.228
			c-1.358-0.77-2.716-1.54-4.377-2.481C135.465,176.097,136.531,175.706,137.596,175.315z"/>
	</g>
	<g>
		<circle cx="195.464" cy="190.129" r="1.702"/>
		<polyline points="194.14,190.766 184.932,212.718 195.693,191.277 		"/>
	</g>
	<g>
		<circle cx="186.159" cy="189.298" r="1.702"/>
		<polyline points="185.671,190.685 194.686,212.718 187.133,189.948 		"/>
	</g>
	<text transform="matrix(1 0 0 1 129.4453 203.3276)" font-family="'OratorStd-Slanted'" font-size="11.462">Stitchup</text>
</g>
<g>
	<path d="M604.371,165.534c1.159,1.708,2.324,3.31,3.371,4.986c1.431,2.294,2.459,4.785,3.262,7.358
		c1.081,3.46,1.595,7.012,1.554,10.636c-0.041,3.699-0.608,7.317-1.854,10.806c-0.942,2.643-1.851,5.319-3.447,7.659
		c-0.726,1.062-1.655,1.988-2.51,2.961c-0.531,0.603-1.09,1.179-1.648,1.76c-0.854,0.891-1.719,1.772-2.594,2.673
		c1.672,1.234,3.54,1.633,5.643,1.445c3.405-0.3,6.833-0.442,10.194,0.371c0.873,0.208,1.746,0.634,2.479,1.156
		c1.05,0.749,1.283,1.884,0.927,3.109c-0.423,1.456-1.437,2.451-2.666,3.252c-1.339,0.87-2.834,1.343-4.372,1.704
		c-3.465,0.808-6.999,1.001-10.531,1.246c-3.212,0.222-6.425,0.482-9.625,0.849c-1.109,0.128-2.217,0.533-3.253,0.976
		c-1.439,0.62-1.688,1.6-0.8,2.879c0.582,0.836,1.301,1.574,1.926,2.381c0.79,1.02,1.629,2.019,2.298,3.115
		c1.008,1.648,0.807,3.281-0.323,4.845c-1.941,2.687-4.57,4.361-7.68,5.381c-3.104,1.021-6.326,1.378-9.553,1.741
		c-3.614,0.405-7.26,0.703-10.702,1.988c-1.573,0.59-3.1,1.344-4.571,2.16c-4.293,2.381-8.193,5.316-11.796,8.644
		c-0.708,0.653-1.369,1.354-2.065,2.017c-0.693,0.664-1.479,1.178-2.463,1.277c-0.785,0.077-1.364-0.41-1.242-1.18
		c0.102-0.635,0.284-1.368,0.692-1.821c1.404-1.56,2.845-3.103,4.415-4.483c2.989-2.629,6.335-4.762,9.861-6.602
		c4.646-2.426,9.54-4.008,14.792-4.51c3.245-0.312,6.48-0.778,9.694-1.333c2.097-0.36,4.118-1.118,5.812-2.448
		c0.975-0.767,1.795-1.743,2.613-2.687c0.587-0.681,0.48-1.168-0.048-1.936c-0.699-1.015-1.568-1.912-2.341-2.875
		c-0.614-0.763-1.267-1.509-1.788-2.333c-1.513-2.382-1.061-4.602,1.215-6.29c1.424-1.054,3.111-1.371,4.794-1.684
		c3.432-0.642,6.918-0.696,10.387-0.908c3.338-0.205,6.674-0.448,9.938-1.231c1.242-0.3,2.496-0.639,3.51-1.462
		c0.495-0.407,0.869-0.961,1.329-1.481c-0.853-0.715-1.734-0.841-2.603-0.958c-2.978-0.399-5.958-0.263-8.939-0.041
		c-1.95,0.146-3.896,0.205-5.682-0.798c-0.596-0.335-1.158-0.737-1.709-1.146c-0.257-0.189-0.423-0.241-0.707-0.031
		c-2.367,1.752-4.95,3.095-7.723,4.098c-2.261,0.82-4.575,1.397-6.955,1.781c-4.379,0.708-8.713,0.463-13.018-0.522
		c-2.904-0.665-5.653-1.755-8.36-3.114c-0.634,1.066-1.271,2.121-1.891,3.187c-1.535,2.655-3.034,5.326-4.597,7.963
		c-1.473,2.486-2.958,4.966-4.536,7.386c-0.68,1.044-1.601,1.929-2.42,2.884c-0.099,0.117-0.222,0.255-0.357,0.298
		c-0.37,0.117-0.81,0.344-1.12,0.239c-0.479-0.161-0.387-0.708-0.248-1.085c0.548-1.509,1.01-3.075,1.748-4.489
		c1.829-3.499,3.771-6.944,5.717-10.382c1.424-2.513,2.93-4.982,4.397-7.473c0.066-0.115,0.115-0.245,0.19-0.412
		c-2.591-1.722-4.89-3.762-6.965-6.149c-0.389,0.296-0.767,0.563-1.125,0.853c-4.118,3.342-8.227,6.689-12.344,10.025
		c-2.397,1.941-4.783,3.896-7.212,5.795c-2.675,2.093-5.364,4.167-8.104,6.172c-0.972,0.714-2.1,1.222-3.178,1.78
		c-0.32,0.164-0.717,0.217-1.084,0.257c-0.616,0.061-0.94-0.357-0.705-0.935c0.146-0.359,0.372-0.692,0.615-1.001
		c1.593-2.015,3.574-3.631,5.525-5.272c1.907-1.604,3.828-3.192,5.775-4.747c3.131-2.5,6.277-4.975,9.433-7.441
		c3.431-2.686,6.877-5.35,10.356-8.053c-5.241-7.642-7.315-16.064-6.016-25.25c0.951-6.707,3.724-12.637,8.168-17.739
		c4.894-5.619,11.003-9.313,18.261-11.022c7.252-1.708,14.347-1.092,21.296,1.71c0.388-0.776,0.78-1.539,1.157-2.308
		c2.197-4.481,4.391-8.964,6.585-13.447c0.604-1.234,1.192-2.478,1.809-3.706c0.143-0.281,0.099-0.432-0.122-0.65
		c-2.467-2.45-2.062-6.319,0.841-8.178c1.777-1.138,4.261-0.988,5.973,0.36c1.642,1.292,2.348,3.665,1.678,5.633
		c-0.732,2.154-2.521,3.526-4.742,3.604c-0.354,0.012-0.508,0.155-0.651,0.453c-1.312,2.704-2.639,5.404-3.96,8.104
		c-1.866,3.812-3.733,7.624-5.638,11.512c2.914,1.588,5.622,3.479,8.013,5.854c0.974-0.772,1.925-1.519,2.87-2.276
		c3.418-2.737,6.83-5.479,10.244-8.221c2.354-1.894,4.702-3.798,7.061-5.691c3.062-2.458,6.132-4.911,9.198-7.367
		c0.183-0.147,0.403-0.274,0.533-0.459c0.108-0.155,0.206-0.42,0.148-0.575c-0.867-2.267-0.324-4.463,1.528-6.081
		c1.584-1.377,3.94-1.537,5.951-0.398c2.193,1.242,3.105,4.088,2.069,6.475c-1.039,2.398-3.737,3.751-6.108,2.939
		c-0.782-0.269-1.243-0.126-1.851,0.371c-3.311,2.711-6.667,5.367-10.006,8.048c-3.873,3.112-7.739,6.232-11.613,9.344
		c-2.463,1.981-4.935,3.954-7.4,5.931C604.535,165.379,604.425,165.486,604.371,165.534z M598.537,215.952
		c1.53,1.23,3.113,2.096,5.075,2.025c2.472-0.091,4.943-0.211,7.417-0.274c1.91-0.05,3.813,0.074,5.636,0.712
		c1.285,0.446,1.497,1.129,0.724,2.234c-0.244,0.346-0.55,0.672-0.882,0.934c-1.564,1.231-3.437,1.709-5.333,2.072
		c-3.835,0.734-7.737,0.777-11.613,1.104c-2.601,0.221-5.204,0.457-7.795,0.782c-1.608,0.202-3.166,0.689-4.428,1.782
		c-1.312,1.137-1.655,2.215-1.268,3.654c0.271,1.001,0.852,1.802,1.488,2.581c1.077,1.321,2.2,2.61,3.215,3.976
		c0.773,1.039,0.687,1.941-0.063,2.983c-1.702,2.358-4.029,3.829-6.765,4.67c-3.289,1.011-6.697,1.357-10.097,1.745
		c-2.225,0.254-4.464,0.496-6.652,0.959c-4.305,0.91-8.243,2.786-12.029,4.98c-3.066,1.775-5.935,3.846-8.532,6.256
		c-1.174,1.089-2.181,2.363-3.23,3.578c-0.19,0.223-0.291,0.56-0.339,0.859c-0.086,0.539,0.13,0.769,0.615,0.568
		c0.638-0.266,1.271-0.607,1.802-1.047c0.694-0.568,1.266-1.287,1.929-1.896c3.256-3.002,6.755-5.684,10.545-7.989
		c3.094-1.882,6.302-3.499,9.89-4.126c2.939-0.514,5.922-0.793,8.885-1.158c2.873-0.353,5.733-0.75,8.459-1.782
		c2.885-1.096,5.3-2.789,6.959-5.464c0.495-0.799,0.573-1.626,0.32-2.484c-0.157-0.538-0.365-1.104-0.699-1.543
		c-0.877-1.157-1.853-2.237-2.754-3.374c-0.533-0.674-1.063-1.365-1.477-2.113c-0.584-1.061-0.367-1.919,0.53-2.738
		c0.778-0.713,1.718-1.094,2.719-1.341c2.687-0.67,5.438-0.779,8.182-0.996c3.858-0.303,7.717-0.612,11.564-1.01
		c1.782-0.183,3.512-0.685,5.144-1.46c1.495-0.709,2.758-1.667,3.326-3.311c0.327-0.948,0.117-1.882-0.721-2.396
		c-0.737-0.451-1.561-0.844-2.397-1.042c-2.782-0.658-5.617-0.489-8.443-0.381c-1.195,0.047-2.393,0.121-3.584,0.062
		c-1.497-0.074-2.759-0.828-3.974-1.657C599.459,215.219,599.046,215.55,598.537,215.952z M587.663,170.586
		c-0.131,0.155-0.189,0.203-0.221,0.264c-0.756,1.531-1.514,3.066-2.258,4.605c-0.062,0.132-0.061,0.306-0.058,0.458
		c0.028,1.157,0.083,2.315,0.095,3.473c0.08,7.188-1.327,14.095-4.05,20.726c-1.945,4.731-4.523,9.11-7.789,13.065
		c-0.45,0.544-0.38,1.099,0.215,1.448c0.336,0.196,0.72,0.404,1.09,0.422c0.593,0.027,1.258,0.026,1.67-0.522
		c1.231-1.629,2.514-3.228,3.638-4.93c2.564-3.892,4.548-8.069,5.991-12.507c1.043-3.206,1.776-6.479,2.199-9.813
		c0.569-4.444,0.53-8.898-0.014-13.341C588.042,172.849,587.848,171.773,587.663,170.586z M582.763,212.906
		c0.874-0.328,1.732-0.609,2.557-0.972c0.338-0.148,0.675-0.412,0.886-0.709c2.076-2.928,3.782-6.06,5.214-9.353
		c1.809-4.171,3.047-8.492,3.743-12.98c0.758-4.884,0.82-9.776,0.212-14.676c-0.435-3.501-1.281-6.917-2.381-10.265
		c-0.269-0.818-0.568-1.624-0.906-2.59c-0.625,1.256-1.194,2.346-1.708,3.462c-0.126,0.272-0.167,0.655-0.081,0.938
		c1.492,5.044,2.354,10.182,2.384,15.453c0.032,5.797-0.822,11.462-2.598,16.982c-1.071,3.337-2.444,6.552-4.189,9.594
		C584.908,209.507,583.83,211.171,582.763,212.906z M543.788,185.831c-0.009,1.205-0.065,2.409-0.009,3.611
		c0.038,0.811,0.076,1.684,0.4,2.401c0.63,1.39,1.412,2.716,2.217,4.015c3.261,5.258,7.317,9.825,12.171,13.652
		c4.618,3.644,9.703,6.462,15.265,8.42c3.738,1.315,7.577,2.15,11.501,2.694c1.594,0.22,3.03-0.009,4.463-0.627
		c0.441-0.193,0.888-0.372,1.332-0.56c-10.475-0.653-19.98-3.917-28.512-9.989C554.098,203.386,547.907,195.48,543.788,185.831z
		 M589.663,166.297c-0.532,1.082-1.006,2.024-1.457,2.979c-0.057,0.124-0.029,0.306,0.002,0.454
		c0.918,4.466,1.294,8.968,1.07,13.533c-0.187,3.743-0.746,7.418-1.682,11.036c-0.867,3.354-2.062,6.594-3.576,9.715
		c-1.642,3.391-3.602,6.583-5.922,9.551c-0.208,0.268-0.413,0.541-0.618,0.81c0.027,0.042,0.057,0.085,0.086,0.127
		c1.2-0.349,2.407-0.687,3.6-1.052c0.15-0.047,0.277-0.21,0.384-0.344c1.879-2.459,3.469-5.097,4.853-7.861
		c1.615-3.223,2.945-6.564,3.787-10.071c0.545-2.269,1.041-4.561,1.363-6.869c0.587-4.216,0.56-8.455,0.077-12.686
		C591.273,172.503,590.649,169.444,589.663,166.297z M564.951,210.043c-4.239-7.834-6.853-16.053-7.713-24.814
		c-0.861-8.727-0.072-17.303,2.271-25.79c-1.426,0.991-2.774,2.026-4.104,3.08c-0.134,0.107-0.21,0.327-0.24,0.508
		c-0.282,1.681-0.572,3.365-0.819,5.053c-0.519,3.589-0.602,7.209-0.397,10.815c0.274,4.88,1.121,9.677,2.492,14.386
		c1.553,5.334,3.837,10.331,6.647,15.107C563.519,209.122,564.121,209.592,564.951,210.043z M585.212,173.186
		c0.125-0.212,0.186-0.303,0.235-0.401c2.093-4.269,4.188-8.536,6.276-12.806c2.051-4.202,4.095-8.407,6.151-12.606
		c1.7-3.477,3.425-6.941,5.105-10.426c0.214-0.441,0.433-0.58,0.918-0.568c1.71,0.046,3.03-0.652,3.89-2.171
		c0.905-1.6,0.706-3.586-0.51-4.868c-1.405-1.484-3.445-1.867-5.161-0.969c-1.668,0.875-2.558,2.719-2.221,4.544
		c0.24,1.305,1.001,2.234,2.068,2.966c-0.074,0.167-0.13,0.312-0.199,0.453c-1.833,3.737-3.676,7.472-5.504,11.214
		c-1.612,3.299-3.198,6.611-4.816,9.91c-2.108,4.305-4.235,8.601-6.346,12.903c-0.084,0.17-0.168,0.375-0.153,0.556
		C585.009,171.629,585.107,172.342,585.212,173.186z M603.664,164.882c2.93-2.345,5.815-4.651,8.691-6.962
		c2.42-1.943,4.828-3.898,7.25-5.839c2.896-2.322,5.8-4.628,8.693-6.95c1.961-1.569,3.92-3.146,5.866-4.734
		c0.239-0.195,0.403-0.153,0.673-0.065c0.68,0.217,1.383,0.465,2.085,0.5c1.692,0.085,3.268-1.042,3.938-2.678
		c0.593-1.439,0.17-3.437-0.957-4.541c-1.618-1.58-3.892-1.676-5.795-0.245c-1.525,1.148-1.944,3.504-0.908,5.344
		c0.235,0.419,0.173,0.617-0.192,0.9c-2.043,1.594-4.068,3.208-6.091,4.828c-3.478,2.788-6.945,5.585-10.419,8.376
		c-3.49,2.806-6.983,5.606-10.475,8.411c-1.099,0.886-2.198,1.774-3.312,2.676c0.175,0.195,0.326,0.372,0.491,0.541
		C603.336,164.584,603.484,164.712,603.664,164.882z M561.756,207.941c0.042-0.039,0.086-0.076,0.129-0.115
		c-3.844-6.664-6.469-13.766-7.783-21.346c-1.31-7.564-1.285-15.128,0.012-22.72c-0.916,0.887-1.746,1.798-2.558,2.725
		c-0.095,0.106-0.136,0.283-0.153,0.433c-0.155,1.286-0.336,2.57-0.443,3.858c-0.523,6.309-0.149,12.556,1.224,18.741
		c0.956,4.313,2.278,8.5,4.119,12.521c0.314,0.693,0.532,1.518,1.046,2.021C558.745,205.429,560.276,206.656,561.756,207.941z
		 M563.821,157.058c-1.057,0.564-2.009,1.057-2.945,1.585c-0.162,0.092-0.298,0.311-0.351,0.497
		c-0.311,1.053-0.611,2.111-0.88,3.177c-1.148,4.541-1.779,9.154-1.956,13.838c-0.16,4.158,0.098,8.287,0.743,12.388
		c1.198,7.619,3.623,14.822,7.424,21.556c0.519,0.918,1.281,1.359,2.169,1.812C558.511,194.273,557.047,176.064,563.821,157.058z
		 M572.076,213.971c-10.961-18.447-12.896-37.703-5.573-57.853c-0.999,0.208-1.747,0.57-2.121,1.7
		c-0.936,2.816-1.923,5.616-2.46,8.539c-0.493,2.678-0.952,5.37-1.241,8.075c-0.517,4.845-0.32,9.693,0.359,14.512
		c1.145,8.108,3.788,15.711,7.838,22.83c0.386,0.68,0.863,1.187,1.592,1.473C570.997,213.454,571.504,213.71,572.076,213.971z
		 M576.465,215.562c-0.011,0.063-0.02,0.128-0.028,0.194c1.006,0.296,2.015,0.599,3.024,0.884c0.104,0.029,0.234-0.016,0.347-0.046
		c1.438-0.401,2.897-0.75,4.312-1.226c4.107-1.379,8.023-3.206,11.699-5.501c4.964-3.103,9.369-6.87,13.145-11.356
		c1.064-1.262,2.188-2.468,2.308-4.258c0.072-1.076,0.275-2.142,0.419-3.213C603.121,203.841,591.377,211.965,576.465,215.562z
		 M580.902,198.737c0.363-1.027,0.656-1.921,0.995-2.797c0.146-0.375,0.045-0.551-0.286-0.735c-3.031-1.688-5.836-3.701-8.474-5.944
		c-3.498-2.975-6.583-6.343-9.257-10.085c-0.277-0.387-0.565-0.766-0.846-1.152c-0.048,0.019-0.1,0.037-0.148,0.056
		c0.061,2.017,0.117,4.036,0.196,6.052c0.009,0.217,0.105,0.478,0.252,0.632c1.815,1.902,3.59,3.849,5.489,5.663
		c2.222,2.122,4.706,3.924,7.314,5.548C577.665,196.927,579.255,197.785,580.902,198.737z M607.336,195.553
		c0.758-0.996,1.448-1.89,2.113-2.801c0.068-0.093,0.043-0.307-0.011-0.434c-0.895-2.095-1.693-4.237-2.717-6.264
		c-2.519-4.986-5.715-9.512-9.611-13.53c-0.436-0.449-0.889-0.881-1.389-1.375c0.217,1.726,0.408,3.34,0.631,4.952
		c0.032,0.236,0.17,0.472,0.315,0.669c1.512,2.028,3.135,3.981,4.533,6.084C603.784,186.745,605.789,190.94,607.336,195.553z
		 M550.477,167.997c-0.625,0.887-1.155,1.686-1.736,2.446c-0.442,0.579-0.562,1.219-0.607,1.92c-0.225,3.391-0.3,6.776-0.018,10.171
		c0.348,4.229,1.109,8.371,2.223,12.46c0.331,1.21,0.796,2.328,1.655,3.268c0.504,0.549,0.937,1.162,1.427,1.724
		c0.649,0.744,1.321,1.469,1.984,2.202C550.695,191.242,549.073,179.875,550.477,167.997z M584.387,178.327
		c0.043-0.026,0.086-0.053,0.128-0.079c-0.061-0.94-0.154-1.88-0.169-2.82c-0.007-0.57-0.237-0.93-0.675-1.276
		c-4.66-3.688-9.759-6.596-15.336-8.661c-1.155-0.426-2.333-0.79-3.552-1.201c-0.235,0.99-0.446,1.879-0.666,2.8
		C571.689,169.449,578.411,173.215,584.387,178.327z M549.973,209.068c-1.623,1.238-3.206,2.427-4.77,3.642
		c-3.1,2.411-6.195,4.825-9.279,7.255c-2.377,1.869-4.752,3.741-7.093,5.651c-2.433,1.988-4.851,3.993-7.218,6.051
		c-1.011,0.88-1.884,1.917-2.812,2.883c0.048,0.062,0.095,0.124,0.145,0.183c0.363-0.168,0.733-0.323,1.089-0.505
		c2.21-1.146,4.144-2.691,6.09-4.217c3.489-2.736,6.964-5.494,10.423-8.273c3.736-3.002,7.444-6.037,11.167-9.056
		c1.016-0.825,2.029-1.657,3.087-2.519C550.52,209.792,550.275,209.467,549.973,209.068z M582.26,194.699
		c0.196-0.675,0.359-1.323,0.582-1.947c0.11-0.314,0.024-0.434-0.241-0.595c-4.185-2.474-8.017-5.416-11.355-8.946
		c-1.924-2.036-3.641-4.267-5.451-6.411c-0.087-0.104-0.155-0.254-0.268-0.303c-0.804-0.337-1.619-0.652-2.431-0.971
		c-0.064,0.045-0.131,0.092-0.195,0.139c0.133,0.442,0.171,0.946,0.41,1.318c2.252,3.451,4.871,6.605,7.846,9.456
		C574.488,189.633,578.146,192.401,582.26,194.699z M563.352,185.973c-0.049,0.033-0.096,0.067-0.146,0.101
		c0.225,1.477,0.438,2.957,0.68,4.43c0.032,0.198,0.134,0.427,0.278,0.558c1.52,1.365,2.979,2.812,4.6,4.043
		c2.059,1.567,4.216,3.013,6.399,4.405c1.382,0.883,2.888,1.579,4.393,2.386c0.379-0.885,0.724-1.687,1.079-2.521
		C573.95,196.041,568.221,191.563,563.352,185.973z M564.939,163.571c3.519,1.032,6.856,2.378,10.068,4.044
		c3.203,1.664,6.2,3.649,9.17,5.966c-0.204-1.32-0.401-2.462-0.55-3.611c-0.058-0.473-0.264-0.788-0.661-1.027
		c-1.312-0.788-2.591-1.637-3.931-2.378c-3.706-2.055-7.619-3.619-11.68-4.815c-0.574-0.169-1.159-0.29-1.758-0.437
		C565.374,162.086,565.165,162.796,564.939,163.571z M583.099,191.572c0.197-0.928,0.396-1.804,0.555-2.685
		c0.022-0.126-0.114-0.317-0.226-0.429c-0.644-0.634-1.282-1.275-1.954-1.877c-2.581-2.31-5.311-4.43-8.299-6.19
		c-1.953-1.152-3.973-2.191-5.96-3.282c-0.038,0.058-0.078,0.117-0.116,0.174C571.485,183.055,576.783,187.815,583.099,191.572z
		 M583.832,187.772c0.099-0.683,0.165-1.265,0.274-1.836c0.069-0.361-0.018-0.608-0.292-0.875c-2.341-2.283-4.863-4.345-7.558-6.194
		c-3.649-2.503-7.552-4.519-11.673-6.117c-0.391-0.15-0.797-0.264-1.234-0.405c-0.055,0.447-0.104,0.815-0.143,1.185
		c-0.038,0.386-0.065,0.772-0.1,1.194C570.951,177.552,577.836,181.875,583.832,187.772z M602.729,200.571
		c0.68-0.686,1.297-1.341,1.949-1.958c0.34-0.325,0.34-0.644,0.201-1.05c-1.274-3.749-2.883-7.344-4.938-10.727
		c-1.025-1.69-2.15-3.317-3.229-4.972c-0.146,0.196-0.17,0.332-0.18,0.464c-0.094,1.33-0.209,2.659-0.267,3.99
		c-0.016,0.344,0.066,0.746,0.248,1.03c1.779,2.812,3.32,5.742,4.558,8.828C601.64,197.595,602.151,199.036,602.729,200.571z
		 M561.174,212.373c-7.056-4.861-12.671-11.024-16.908-18.477c0.258,1.418,0.551,2.812,0.954,4.172
		c0.322,1.084,0.607,2.25,1.215,3.178c1.596,2.433,3.516,4.629,5.627,6.627c1.754,1.659,3.616,3.2,5.468,4.749
		c0.758,0.632,1.617,1.147,2.479,1.748C560.425,213.656,560.79,213.031,561.174,212.373z M547.244,239.619
		c0.065,0.038,0.131,0.074,0.194,0.108c0.535-0.622,1.141-1.198,1.596-1.872c1.242-1.838,2.487-3.678,3.608-5.588
		c3.335-5.672,6.608-11.38,9.904-17.075c0.271-0.47,0.525-0.951,0.791-1.435c-0.474-0.286-0.904-0.548-1.408-0.855
		c-0.094,0.184-0.167,0.347-0.254,0.496c-1.858,3.144-3.771,6.258-5.57,9.436c-2.606,4.596-5.152,9.224-7.678,13.863
		C547.928,237.613,547.633,238.645,547.244,239.619z M581.234,217.025c0.012,0.049,0.022,0.096,0.033,0.143
		c0.745,0.161,1.484,0.347,2.237,0.465c0.353,0.057,0.753,0.067,1.086-0.04c3.527-1.122,6.9-2.608,10.115-4.436
		c5.075-2.884,9.563-6.504,13.553-10.765c1.104-1.179,1.452-2.633,1.933-4.073C602.479,207.564,592.827,213.79,581.234,217.025z
		 M609.655,176.509c-0.044-0.208-0.047-0.368-0.104-0.499c-0.656-1.424-1.304-2.853-1.996-4.259
		c-0.146-0.294-0.432-0.569-0.721-0.729c-1.115-0.621-2.223-1.275-3.396-1.766c-2.332-0.981-4.7-1.875-7.065-2.778
		c-0.6-0.229-1.24-0.351-1.922-0.541c0.273,1.088,0.511,2.061,0.778,3.026c0.036,0.137,0.188,0.289,0.323,0.346
		c0.871,0.359,1.753,0.688,2.628,1.037c2.724,1.084,5.357,2.354,7.863,3.877C607.245,174.95,608.42,175.726,609.655,176.509z
		 M563,216.226c0.816,0.439,1.581,0.882,2.37,1.276c3.08,1.542,6.267,2.818,9.595,3.712c1.585,0.427,3.15,1.042,4.832,0.913
		c1.33-0.105,2.654-0.31,3.978-0.482c0.36-0.046,0.714-0.14,1.069-0.212c-7.39-1.024-14.264-3.446-20.686-7.178
		C563.749,214.953,563.381,215.578,563,216.226z M549.109,194.425c0.086-0.028,0.172-0.058,0.258-0.088
		c-1.888-6.897-2.504-13.919-2.064-21.164c-0.13,0.168-0.185,0.221-0.216,0.287c-1.543,3.208-2.541,6.583-3.038,10.105
		c-0.028,0.201,0.013,0.433,0.09,0.62c0.468,1.166,0.896,2.352,1.453,3.473C546.726,189.934,547.933,192.171,549.109,194.425z
		 M567.267,156.437c-0.274,0.763-0.514,1.432-0.777,2.159c5.655,1.266,10.885,3.379,15.96,6.293c-0.419-1.29-0.769-2.43-1.175-3.553
		c-0.076-0.216-0.349-0.408-0.578-0.516c-2.574-1.227-5.229-2.25-7.978-3.012C570.931,157.315,569.118,156.9,567.267,156.437z
		 M596.23,170.235c-0.03,0.059-0.059,0.12-0.089,0.181c1.163,1.239,2.408,2.415,3.469,3.741c0.661,0.827,1.5,1.258,2.361,1.759
		c2.311,1.333,4.591,2.717,6.863,4.114c0.773,0.476,1.489,1.048,2.227,1.577c-0.153-1.079-0.446-2.089-0.678-3.114
		c-0.115-0.508-0.411-0.816-0.826-1.071c-2.311-1.412-4.566-2.922-6.94-4.214C600.557,172.089,598.363,171.216,596.23,170.235z
		 M584.369,169.76c0.713-1.45,1.346-2.728,1.958-4.02c0.062-0.134,0.031-0.346-0.019-0.502c-1.168-3.677-2.628-7.225-4.56-10.572
		c-0.072-0.127-0.189-0.311-0.3-0.323c-0.828-0.092-1.654-0.144-2.582-0.217C581.498,159.093,583.312,164.195,584.369,169.76z
		 M584.41,181.417c0.133-1.146,0.297-2.183-0.871-2.8c-0.151-0.08-0.255-0.245-0.393-0.358c-4.56-3.742-9.55-6.766-15.038-8.947
		c-1.328-0.528-2.682-0.989-4.077-1.499c-0.066,0.342-0.115,0.588-0.158,0.836c-0.044,0.244-0.082,0.491-0.123,0.756
		C571.479,171.958,578.334,175.922,584.41,181.417z M585.992,218.083c0.746,0.089,1.491,0.201,2.241,0.263
		c0.381,0.033,0.81,0.084,1.148-0.051c3.161-1.246,6.229-2.702,9.062-4.586c1.795-1.193,3.539-2.475,5.22-3.821
		c1.562-1.247,2.79-2.813,3.744-4.576c0.27-0.498,0.48-1.028,0.717-1.543C601.815,210.208,594.451,214.923,585.992,218.083z
		 M579.183,202.507c-5.525-2.591-10.448-6.024-14.949-10.297c0.138,0.677,0.268,1.174,0.333,1.679
		c0.224,1.682,0.785,3.14,2.442,3.93c0.138,0.066,0.253,0.186,0.381,0.274c3.047,2.101,6.229,3.959,9.637,5.42
		C578.567,204.175,578.562,204.192,579.183,202.507z M563.402,171.519c7.884,2.78,14.793,7.062,20.828,12.88
		c0.196-1.113,0.332-2.043-0.708-2.796c-1.384-0.999-2.639-2.171-4.001-3.201c-4.17-3.142-8.736-5.571-13.609-7.436
		c-0.741-0.284-1.503-0.517-2.298-0.789C563.541,170.647,563.477,171.052,563.402,171.519z M578.095,204.796
		c-4.476-1.815-8.563-4.155-12.433-6.937c0.368,1.27,0.784,2.493,1.23,3.705c0.076,0.202,0.264,0.394,0.449,0.513
		c2.152,1.374,4.295,2.756,6.479,4.078c0.848,0.511,1.792,0.869,2.721,1.311C577.064,206.564,577.563,205.707,578.095,204.796z
		 M605.65,197.478c0.289-0.312,0.501-0.567,0.742-0.791c0.309-0.286,0.379-0.573,0.204-0.983c-0.317-0.761-0.562-1.551-0.859-2.32
		c-1.925-4.973-4.492-9.582-7.778-13.785c-0.463-0.593-0.924-1.185-1.493-1.916c0.021,0.862,0.068,1.528,0.042,2.192
		c-0.02,0.467,0.166,0.803,0.423,1.167c1.227,1.75,2.504,3.471,3.61,5.295C602.652,189.82,604.312,193.524,605.65,197.478z
		 M580.599,159.915c0.05-0.053,0.1-0.107,0.148-0.16c-0.873-1.796-1.736-3.596-2.628-5.383c-0.062-0.125-0.31-0.231-0.468-0.229
		c-2.881,0.029-5.721,0.365-8.509,1.103c-0.494,0.131-0.983,0.296-1.475,0.446C572.156,156.648,576.454,158.039,580.599,159.915z
		 M587.365,210.918c0.046,0.069,0.091,0.137,0.134,0.208c2.664-1.509,5.33-3.02,8.095-4.587c-0.969-1.988-1.864-3.831-2.76-5.672
		C591.242,204.431,589.487,207.772,587.365,210.918z M565.851,160.593c6.219,1.542,11.965,4.08,17.296,7.571
		c0.029-0.069,0.062-0.106,0.055-0.136c-0.111-0.519-0.255-1.03-0.342-1.552c-0.062-0.387-0.264-0.611-0.592-0.805
		c-4.681-2.76-9.657-4.797-14.93-6.104C566.159,159.275,566.256,159.012,565.851,160.593z M596.099,188.016
		c-0.196,1.102-0.382,2.035-0.516,2.975c-0.036,0.261,0.014,0.575,0.134,0.811c1.159,2.288,2.373,4.546,3.502,6.853
		c0.578,1.186,1.013,2.442,1.526,3.698c0.118-0.095,0.212-0.164,0.298-0.239c1.08-0.937,1.123-0.954,0.594-2.281
		c-0.941-2.367-1.874-4.743-2.935-7.056C597.97,191.182,597.023,189.688,596.099,188.016z M603.022,165.534
		c-1.4-1.77-3.064-3.228-4.826-4.578c-0.231-0.178-0.48-0.379-0.754-0.445c-1.371-0.333-2.754-0.63-4.134-0.923
		c-0.125-0.027-0.347,0.013-0.395,0.097c-0.232,0.396-0.519,0.789-0.217,1.299c0.169,0.283,0.275,0.608,0.368,0.929
		c0.105,0.364,0.326,0.5,0.686,0.604c1.981,0.562,3.956,1.137,5.919,1.764C600.806,164.642,601.906,165.112,603.022,165.534z
		 M575.976,208.198c-2.785-1.598-5.565-3.19-8.449-4.846c0.73,1.577,1.437,3.098,2.15,4.617c0.035,0.08,0.134,0.142,0.219,0.188
		c1.495,0.813,2.992,1.618,4.578,2.474C575.018,209.749,575.52,208.938,575.976,208.198z M606.473,169.845
		c-0.556-0.795-1.076-1.501-1.554-2.235c-0.314-0.485-0.727-0.792-1.265-0.984c-2.584-0.921-5.157-1.87-7.748-2.776
		c-0.719-0.252-1.479-0.393-2.324-0.613c0.15,0.464,0.292,0.772,0.347,1.096c0.093,0.567,0.439,0.767,0.956,0.931
		c1.925,0.612,3.858,1.209,5.732,1.954C602.563,167.988,604.445,168.926,606.473,169.845z M587.005,164.349
		c0.293-0.579,0.656-1.208,0.925-1.878c0.112-0.27,0.115-0.67-0.005-0.929c-0.923-1.971-1.878-3.925-2.844-5.874
		c-0.444-0.895-1.425-1.293-2.302-1.086C584.182,157.825,585.594,161.09,587.005,164.349z M558.772,216.354
		c0.236-0.349,0.423-0.646,0.627-0.931c0.223-0.313,0.126-0.51-0.176-0.716c-0.715-0.482-1.414-0.991-2.111-1.496
		c-2.58-1.879-4.927-4.016-7.098-6.353c-0.295-0.317-0.582-0.64-0.873-0.956c-0.274-0.3-0.548-0.602-0.822-0.9
		C550.887,209.621,554.377,213.376,558.772,216.354z M601.796,176.797c0.488,0.661,0.947,1.345,1.477,1.971
		c0.345,0.407,0.759,0.78,1.2,1.081c1.704,1.157,3.439,2.27,5.147,3.421c0.653,0.444,1.271,0.944,1.97,1.466
		c-0.033-0.359-0.086-0.631-0.076-0.902c0.031-0.811-0.451-1.288-1.045-1.71c-0.496-0.354-0.977-0.728-1.475-1.079
		C606.715,179.435,604.364,177.942,601.796,176.797z M574.593,221.988c-4.139-1.301-8.144-2.919-11.942-5.119
		c-0.268,0.479-0.51,0.913-0.75,1.342C565.898,220.416,570.136,221.569,574.593,221.988z M588.64,161.05
		c0.558-1.146,1.091-2.23,1.611-3.322c0.046-0.094,0.053-0.236,0.017-0.333c-0.252-0.642-0.521-1.266-1.34-1.381
		c-0.284-0.04-0.553-0.197-0.832-0.277c-0.773-0.224-1.553-0.434-2.376-0.664C586.707,157.094,587.647,159.019,588.64,161.05z
		 M594.589,195.381c-0.169,0.521-0.348,0.934-0.431,1.369c-0.051,0.26-0.029,0.583,0.084,0.821c0.563,1.187,1.188,2.342,1.746,3.535
		c0.579,1.232,1.105,2.494,1.679,3.796c0.229-0.182,0.411-0.361,0.627-0.485c0.349-0.204,0.349-0.451,0.215-0.791
		C597.404,200.828,596.228,198.069,594.589,195.381z M599.324,203.598c0.24-0.402,0.881-0.382,0.637-1.037
		c-1.009-2.725-2.112-5.405-3.514-7.954c-0.362-0.656-0.73-1.31-1.17-2.098c-0.155,0.632-0.28,1.103-0.377,1.58
		c-0.022,0.116,0.017,0.271,0.079,0.376C596.683,197.337,598.061,200.367,599.324,203.598z M611.798,187.806
		c-0.014-0.354-0.058-0.626-0.026-0.889c0.1-0.879-0.361-1.402-1.035-1.87c-1.598-1.106-3.161-2.262-4.746-3.387
		c-0.35-0.25-0.74-0.442-1.113-0.662c0.801,1.287,1.168,2.862,2.687,3.554c0.26,0.119,0.475,0.345,0.708,0.525
		C609.419,185.965,610.565,186.854,611.798,187.806z M593.706,198.159c-0.153,0.434-0.222,0.746-0.368,1.013
		c-0.251,0.463-0.194,0.844,0.076,1.297c0.482,0.809,0.89,1.664,1.303,2.51c0.482,0.982,0.937,1.98,1.407,2.974
		c0.87-0.476,0.886-0.48,0.55-1.332c-0.398-1.003-0.79-2.011-1.242-2.99C594.906,200.495,594.324,199.39,593.706,198.159z
		 M611.125,190.212c0.134-0.208,0.291-0.482,0.476-0.736c0.255-0.345,0.255-0.613-0.121-0.89c-0.44-0.325-0.835-0.716-1.266-1.057
		c-0.951-0.746-1.912-1.477-2.955-2.279C608.032,187.393,608.986,189.232,611.125,190.212z M591.106,218.576
		c1.309,0.175,1.894,0.119,3.021-0.589c1.41-0.884,2.783-1.834,4.145-2.794c0.534-0.376,1.006-0.852,1.396-1.188
		C596.857,215.507,593.943,217.063,591.106,218.576z M572.507,213.118c0.52-0.686,0.976-1.285,1.454-1.917
		c-1.19-0.618-2.329-1.21-3.619-1.876C571.101,210.65,571.783,211.849,572.507,213.118z M593.371,158.803
		c0.736,0.146,1.378,0.273,2.021,0.4c0.019-0.042,0.036-0.084,0.055-0.125c-0.58-0.32-1.159-0.643-1.784-0.989
		C593.553,158.356,593.475,158.55,593.371,158.803z M610.667,190.973c-0.413-0.32-0.794-0.618-1.176-0.914
		c-0.031,0.031-0.061,0.061-0.092,0.091c0.208,0.527,0.419,1.058,0.663,1.679C610.302,191.493,610.475,191.246,610.667,190.973z"/>
	<path fill="#FAAA64" d="M598.537,215.952c0.509-0.401,0.922-0.732,1.349-1.07c1.215,0.831,2.476,1.583,3.973,1.657
		c1.191,0.059,2.389-0.016,3.584-0.061c2.826-0.109,5.661-0.277,8.443,0.38c0.837,0.199,1.66,0.591,2.397,1.043
		c0.838,0.513,1.049,1.447,0.721,2.395c-0.569,1.645-1.831,2.603-3.326,3.311c-1.632,0.775-3.361,1.278-5.144,1.461
		c-3.848,0.396-7.706,0.706-11.564,1.009c-2.744,0.217-5.495,0.326-8.182,0.996c-1.001,0.246-1.94,0.627-2.719,1.34
		c-0.897,0.82-1.114,1.678-0.53,2.739c0.413,0.749,0.943,1.44,1.477,2.113c0.901,1.137,1.877,2.217,2.754,3.375
		c0.334,0.439,0.543,1.004,0.699,1.543c0.253,0.858,0.174,1.685-0.32,2.483c-1.659,2.675-4.074,4.369-6.959,5.463
		c-2.725,1.034-5.586,1.43-8.458,1.783c-2.964,0.365-5.946,0.644-8.886,1.159c-3.587,0.627-6.796,2.244-9.89,4.126
		c-3.789,2.305-7.289,4.984-10.545,7.986c-0.663,0.611-1.233,1.328-1.929,1.898c-0.53,0.438-1.163,0.782-1.802,1.046
		c-0.485,0.202-0.701-0.028-0.614-0.567c0.047-0.299,0.148-0.637,0.338-0.859c1.05-1.214,2.057-2.488,3.231-3.577
		c2.597-2.41,5.465-4.48,8.531-6.259c3.786-2.191,7.725-4.068,12.029-4.979c2.188-0.463,4.428-0.704,6.652-0.959
		c3.399-0.387,6.81-0.734,10.097-1.746c2.735-0.84,5.062-2.311,6.765-4.669c0.752-1.043,0.837-1.945,0.063-2.984
		c-1.014-1.366-2.138-2.654-3.215-3.976c-0.637-0.778-1.218-1.58-1.488-2.58c-0.388-1.438-0.045-2.517,1.268-3.654
		c1.262-1.092,2.818-1.58,4.428-1.781c2.591-0.326,5.194-0.562,7.795-0.783c3.876-0.327,7.779-0.37,11.613-1.104
		c1.896-0.363,3.769-0.84,5.333-2.073c0.332-0.262,0.638-0.587,0.882-0.934c0.773-1.104,0.562-1.788-0.724-2.234
		c-1.821-0.637-3.726-0.761-5.636-0.711c-2.474,0.064-4.944,0.184-7.417,0.275C601.65,218.048,600.067,217.182,598.537,215.952z"/>
	<path fill="#FAAA64" d="M587.663,170.586c0.185,1.188,0.379,2.263,0.51,3.346c0.543,4.443,0.582,8.897,0.014,13.341
		c-0.423,3.334-1.156,6.607-2.199,9.813c-1.444,4.437-3.427,8.616-5.991,12.507c-1.124,1.702-2.406,3.3-3.638,4.93
		c-0.412,0.548-1.077,0.55-1.67,0.522c-0.37-0.017-0.754-0.226-1.09-0.422c-0.595-0.349-0.665-0.903-0.216-1.448
		c3.267-3.957,5.845-8.334,7.79-13.066c2.723-6.63,4.13-13.538,4.049-20.726c-0.012-1.157-0.065-2.315-0.094-3.473
		c-0.003-0.153-0.005-0.325,0.057-0.458c0.745-1.539,1.502-3.074,2.259-4.605C587.474,170.789,587.533,170.74,587.663,170.586z"/>
	<path fill="#FAAA64" d="M582.763,212.906c1.067-1.736,2.146-3.399,3.133-5.114c1.745-3.042,3.118-6.258,4.189-9.595
		c1.775-5.52,2.629-11.185,2.598-16.982c-0.029-5.271-0.892-10.408-2.384-15.452c-0.087-0.284-0.046-0.667,0.081-0.938
		c0.513-1.116,1.083-2.207,1.708-3.462c0.339,0.967,0.639,1.772,0.906,2.59c1.099,3.349,1.946,6.763,2.381,10.265
		c0.607,4.899,0.546,9.792-0.212,14.676c-0.696,4.488-1.935,8.809-3.743,12.979c-1.432,3.293-3.139,6.426-5.214,9.353
		c-0.211,0.298-0.548,0.562-0.886,0.71C584.495,212.297,583.639,212.579,582.763,212.906z"/>
	<path fill="#FAAA64" d="M543.788,185.831c4.119,9.65,10.31,17.556,18.827,23.619c8.531,6.071,18.037,9.334,28.512,9.989
		c-0.444,0.188-0.891,0.367-1.331,0.56c-1.434,0.619-2.87,0.848-4.464,0.627c-3.924-0.544-7.763-1.378-11.501-2.694
		c-5.562-1.959-10.646-4.776-15.265-8.42c-4.854-3.829-8.91-8.395-12.171-13.652c-0.805-1.299-1.587-2.625-2.217-4.015
		c-0.324-0.716-0.362-1.59-0.399-2.401C543.723,188.24,543.779,187.035,543.788,185.831z"/>
	<path fill="#FAAA64" d="M589.663,166.297c0.986,3.146,1.61,6.207,1.966,9.32c0.482,4.23,0.51,8.47-0.077,12.686
		c-0.322,2.308-0.818,4.6-1.362,6.869c-0.843,3.507-2.173,6.848-3.788,10.072c-1.384,2.764-2.974,5.401-4.853,7.861
		c-0.105,0.132-0.233,0.296-0.383,0.343c-1.194,0.365-2.4,0.705-3.601,1.052c-0.029-0.041-0.058-0.085-0.086-0.126
		c0.204-0.269,0.41-0.542,0.618-0.81c2.32-2.968,4.28-6.16,5.922-9.551c1.515-3.121,2.708-6.36,3.576-9.714
		c0.937-3.619,1.495-7.294,1.682-11.037c0.224-4.565-0.152-9.065-1.07-13.532c-0.03-0.148-0.059-0.33-0.002-0.455
		C588.657,168.321,589.131,167.378,589.663,166.297z"/>
	<path fill="#FAAA64" d="M564.951,210.043c-0.83-0.452-1.433-0.922-1.863-1.655c-2.812-4.776-5.095-9.773-6.647-15.107
		c-1.371-4.709-2.219-9.505-2.492-14.386c-0.203-3.606-0.121-7.226,0.397-10.815c0.246-1.688,0.536-3.372,0.819-5.053
		c0.03-0.181,0.106-0.401,0.24-0.508c1.332-1.054,2.679-2.089,4.104-3.08c-2.344,8.487-3.133,17.064-2.271,25.79
		C558.099,193.991,560.712,202.209,564.951,210.043z"/>
	<path fill="#D1C78F" d="M585.212,173.186c-0.103-0.844-0.202-1.557-0.266-2.269c-0.016-0.181,0.069-0.386,0.153-0.556
		c2.111-4.302,4.238-8.598,6.346-12.903c1.618-3.299,3.204-6.61,4.816-9.91c1.828-3.742,3.671-7.477,5.504-11.213
		c0.068-0.141,0.125-0.285,0.199-0.453c-1.067-0.732-1.827-1.662-2.068-2.966c-0.338-1.825,0.553-3.669,2.221-4.544
		c1.715-0.898,3.756-0.516,5.161,0.968c1.216,1.282,1.415,3.268,0.51,4.869c-0.86,1.52-2.18,2.217-3.89,2.171
		c-0.485-0.013-0.704,0.127-0.918,0.568c-1.681,3.484-3.405,6.949-5.105,10.426c-2.057,4.199-4.1,8.404-6.151,12.605
		c-2.088,4.27-4.184,8.538-6.276,12.807C585.397,172.883,585.336,172.974,585.212,173.186z"/>
	<path fill="#D1C78F" d="M603.664,164.882c-0.179-0.169-0.327-0.297-0.461-0.438c-0.165-0.169-0.315-0.347-0.491-0.541
		c1.114-0.902,2.214-1.79,3.312-2.677c3.491-2.804,6.984-5.605,10.475-8.411c3.474-2.792,6.941-5.589,10.419-8.376
		c2.022-1.62,4.048-3.234,6.091-4.828c0.365-0.284,0.427-0.482,0.192-0.9c-1.036-1.839-0.615-4.196,0.908-5.344
		c1.903-1.431,4.177-1.335,5.795,0.245c1.127,1.104,1.55,3.103,0.957,4.541c-0.671,1.637-2.246,2.763-3.938,2.678
		c-0.702-0.035-1.405-0.283-2.085-0.5c-0.27-0.087-0.433-0.129-0.673,0.065c-1.946,1.587-3.906,3.165-5.866,4.734
		c-2.894,2.322-5.798,4.628-8.693,6.95c-2.422,1.941-4.83,3.896-7.25,5.839C609.479,160.23,606.594,162.537,603.664,164.882z"/>
	<path fill="#FAAA64" d="M561.756,207.941c-1.479-1.285-3.011-2.513-4.409-3.88c-0.514-0.504-0.73-1.328-1.046-2.021
		c-1.841-4.021-3.163-8.209-4.119-12.521c-1.373-6.186-1.746-12.433-1.224-18.741c0.107-1.289,0.288-2.573,0.443-3.858
		c0.018-0.15,0.059-0.326,0.153-0.433c0.813-0.926,1.642-1.837,2.558-2.725c-1.297,7.591-1.321,15.155-0.012,22.72
		c1.315,7.581,3.939,14.683,7.784,21.346C561.842,207.866,561.798,207.903,561.756,207.941z"/>
	<path fill="#FAAA64" d="M563.821,157.058c-6.774,19.006-5.31,37.215,4.204,54.853c-0.888-0.452-1.65-0.893-2.169-1.812
		c-3.801-6.734-6.226-13.937-7.424-21.556c-0.645-4.1-0.902-8.23-0.743-12.388c0.177-4.685,0.808-9.297,1.956-13.838
		c0.269-1.066,0.569-2.123,0.88-3.177c0.054-0.188,0.189-0.406,0.351-0.497C561.811,158.115,562.764,157.622,563.821,157.058z"/>
	<path fill="#FAAA64" d="M572.076,213.971c-0.572-0.26-1.081-0.517-1.607-0.724c-0.729-0.286-1.206-0.792-1.592-1.473
		c-4.05-7.119-6.693-14.722-7.838-22.83c-0.68-4.819-0.876-9.667-0.359-14.512c0.289-2.705,0.749-5.397,1.241-8.075
		c0.537-2.922,1.525-5.722,2.46-8.539c0.374-1.13,1.123-1.491,2.122-1.7C559.181,176.269,561.115,195.523,572.076,213.971z"/>
	<path fill="#FAAA64" d="M576.465,215.562c14.912-3.597,26.657-11.721,35.224-24.521c-0.143,1.071-0.347,2.137-0.419,3.213
		c-0.119,1.79-1.243,2.996-2.308,4.258c-3.775,4.487-8.18,8.254-13.145,11.357c-3.676,2.296-7.591,4.121-11.699,5.501
		c-1.415,0.476-2.874,0.824-4.312,1.225c-0.112,0.031-0.242,0.076-0.347,0.046c-1.01-0.286-2.019-0.587-3.024-0.884
		C576.444,215.69,576.454,215.625,576.465,215.562z"/>
	<path fill="#FAAA64" d="M580.902,198.737c-1.647-0.952-3.237-1.811-4.765-2.761c-2.607-1.624-5.093-3.427-7.314-5.548
		c-1.898-1.814-3.674-3.761-5.489-5.663c-0.146-0.154-0.243-0.416-0.252-0.632c-0.079-2.017-0.135-4.035-0.196-6.052
		c0.049-0.019,0.1-0.037,0.148-0.056c0.28,0.385,0.568,0.764,0.846,1.151c2.674,3.742,5.759,7.11,9.257,10.086
		c2.637,2.243,5.443,4.255,8.475,5.944c0.33,0.184,0.432,0.361,0.285,0.735C581.559,196.817,581.266,197.71,580.902,198.737z"/>
	<path fill="#FAAA64" d="M607.336,195.553c-1.547-4.612-3.551-8.808-6.136-12.696c-1.398-2.104-3.021-4.057-4.533-6.084
		c-0.146-0.197-0.283-0.434-0.314-0.669c-0.224-1.611-0.414-3.226-0.632-4.952c0.5,0.494,0.953,0.926,1.389,1.375
		c3.896,4.018,7.094,8.542,9.611,13.529c1.022,2.027,1.822,4.168,2.717,6.264c0.054,0.127,0.079,0.34,0.011,0.434
		C608.783,193.664,608.094,194.557,607.336,195.553z"/>
	<path fill="#FAAA64" d="M550.477,167.997c-1.403,11.879,0.219,23.245,4.929,34.192c-0.663-0.733-1.335-1.458-1.984-2.202
		c-0.491-0.562-0.924-1.175-1.427-1.724c-0.859-0.94-1.324-2.058-1.655-3.268c-1.114-4.089-1.876-8.231-2.223-12.46
		c-0.282-3.396-0.207-6.781,0.018-10.171c0.047-0.701,0.166-1.341,0.607-1.92C549.321,169.682,549.852,168.884,550.477,167.997z"/>
	<path fill="#FAAA64" d="M584.387,178.327c-5.976-5.111-12.697-8.876-20.27-11.237c0.221-0.921,0.431-1.81,0.667-2.8
		c1.219,0.412,2.397,0.774,3.552,1.201c5.576,2.064,10.676,4.974,15.336,8.661c0.438,0.347,0.668,0.707,0.675,1.276
		c0.015,0.939,0.108,1.88,0.169,2.82C584.473,178.274,584.43,178.3,584.387,178.327z"/>
	<path fill="#D1C78F" d="M549.973,209.068c0.304,0.399,0.547,0.723,0.828,1.095c-1.058,0.864-2.07,1.695-3.087,2.519
		c-3.723,3.02-7.431,6.053-11.167,9.056c-3.459,2.778-6.934,5.537-10.423,8.273c-1.946,1.525-3.88,3.07-6.09,4.217
		c-0.355,0.183-0.726,0.337-1.089,0.505c-0.05-0.059-0.097-0.121-0.145-0.183c0.93-0.966,1.802-2.002,2.812-2.883
		c2.367-2.059,4.785-4.063,7.218-6.051c2.341-1.91,4.716-3.783,7.093-5.651c3.084-2.431,6.181-4.844,9.279-7.256
		C546.767,211.496,548.35,210.306,549.973,209.068z"/>
	<path fill="#FAAA64" d="M582.26,194.699c-4.113-2.297-7.771-5.065-11.104-8.257c-2.974-2.849-5.594-6.004-7.846-9.455
		c-0.238-0.372-0.276-0.877-0.41-1.319c0.064-0.048,0.13-0.094,0.195-0.139c0.811,0.318,1.627,0.634,2.431,0.971
		c0.112,0.048,0.181,0.199,0.268,0.302c1.811,2.144,3.527,4.375,5.451,6.411c3.339,3.53,7.171,6.471,11.355,8.945
		c0.267,0.162,0.352,0.279,0.241,0.595C582.619,193.376,582.456,194.024,582.26,194.699z"/>
	<path fill="#FAAA64" d="M563.352,185.973c4.869,5.59,10.6,10.067,17.282,13.402c-0.354,0.834-0.7,1.636-1.079,2.521
		c-1.505-0.807-3.011-1.503-4.393-2.386c-2.184-1.393-4.341-2.838-6.399-4.405c-1.621-1.232-3.08-2.678-4.6-4.043
		c-0.145-0.131-0.246-0.36-0.278-0.558c-0.24-1.475-0.455-2.954-0.68-4.43C563.255,186.04,563.303,186.006,563.352,185.973z"/>
	<path fill="#FAAA64" d="M564.939,163.571c0.226-0.776,0.433-1.486,0.659-2.259c0.599,0.147,1.184,0.267,1.758,0.437
		c4.062,1.197,7.974,2.76,11.68,4.815c1.341,0.742,2.618,1.591,3.931,2.378c0.397,0.239,0.604,0.554,0.661,1.027
		c0.148,1.148,0.346,2.291,0.55,3.611c-2.97-2.317-5.967-4.302-9.17-5.966C571.797,165.95,568.458,164.603,564.939,163.571z"/>
	<path fill="#FAAA64" d="M583.099,191.572c-6.315-3.758-11.613-8.517-16-14.288c0.038-0.057,0.078-0.116,0.116-0.174
		c1.987,1.09,4.007,2.13,5.96,3.282c2.988,1.759,5.718,3.879,8.299,6.19c0.672,0.603,1.311,1.243,1.954,1.877
		c0.111,0.112,0.247,0.304,0.226,0.43C583.494,189.769,583.296,190.645,583.099,191.572z"/>
	<path fill="#FAAA64" d="M583.832,187.772c-5.996-5.896-12.881-10.22-20.726-13.047c0.034-0.423,0.062-0.808,0.1-1.194
		c0.037-0.37,0.088-0.738,0.143-1.185c0.438,0.141,0.844,0.255,1.235,0.405c4.12,1.598,8.023,3.614,11.672,6.117
		c2.695,1.85,5.217,3.912,7.558,6.194c0.274,0.266,0.361,0.513,0.292,0.875C583.997,186.507,583.933,187.088,583.832,187.772z"/>
	<path fill="#FAAA64" d="M602.729,200.571c-0.577-1.535-1.089-2.976-1.657-4.395c-1.237-3.086-2.778-6.016-4.558-8.827
		c-0.182-0.285-0.264-0.686-0.248-1.03c0.057-1.332,0.172-2.661,0.267-3.99c0.01-0.132,0.033-0.269,0.18-0.464
		c1.08,1.655,2.204,3.282,3.229,4.972c2.055,3.383,3.662,6.978,4.937,10.727c0.14,0.406,0.14,0.725-0.2,1.05
		C604.025,199.23,603.408,199.885,602.729,200.571z"/>
	<path fill="#FAAA64" d="M561.174,212.373c-0.384,0.658-0.749,1.283-1.166,1.999c-0.861-0.602-1.72-1.117-2.479-1.749
		c-1.852-1.548-3.714-3.09-5.468-4.749c-2.111-1.998-4.031-4.195-5.627-6.627c-0.607-0.929-0.893-2.093-1.215-3.179
		c-0.403-1.36-0.696-2.753-0.954-4.171C548.503,201.348,554.118,207.512,561.174,212.373z"/>
	<path fill="#D1C78F" d="M547.244,239.619c0.389-0.974,0.684-2.006,1.183-2.92c2.525-4.639,5.071-9.268,7.678-13.863
		c1.8-3.179,3.712-6.293,5.57-9.436c0.088-0.15,0.16-0.313,0.254-0.496c0.504,0.307,0.935,0.568,1.408,0.854
		c-0.267,0.484-0.521,0.964-0.791,1.435c-3.295,5.694-6.568,11.403-9.903,17.075c-1.121,1.91-2.367,3.75-3.609,5.588
		c-0.455,0.674-1.06,1.25-1.596,1.873C547.375,239.693,547.31,239.657,547.244,239.619z"/>
	<path fill="#FAAA64" d="M581.234,217.025c11.594-3.235,21.244-9.461,28.958-18.704c-0.481,1.44-0.828,2.894-1.933,4.073
		c-3.989,4.26-8.478,7.879-13.553,10.765c-3.215,1.827-6.588,3.314-10.115,4.435c-0.334,0.106-0.733,0.096-1.086,0.04
		c-0.754-0.119-1.492-0.305-2.238-0.464C581.257,217.123,581.246,217.074,581.234,217.025z"/>
	<path fill="#FAAA64" d="M609.655,176.509c-1.235-0.784-2.409-1.56-3.611-2.288c-2.506-1.522-5.14-2.792-7.863-3.877
		c-0.875-0.349-1.757-0.677-2.628-1.037c-0.136-0.057-0.287-0.209-0.323-0.347c-0.268-0.965-0.505-1.937-0.779-3.025
		c0.682,0.189,1.323,0.312,1.923,0.54c2.365,0.903,4.733,1.798,7.065,2.778c1.174,0.491,2.281,1.145,3.396,1.766
		c0.289,0.161,0.574,0.436,0.721,0.729c0.692,1.406,1.339,2.834,1.995,4.259C609.608,176.141,609.611,176.3,609.655,176.509z"/>
	<path fill="#FAAA64" d="M563,216.226c0.381-0.648,0.749-1.274,1.156-1.97c6.422,3.73,13.297,6.153,20.687,7.178
		c-0.356,0.072-0.71,0.165-1.07,0.212c-1.322,0.171-2.647,0.377-3.978,0.482c-1.681,0.127-3.246-0.485-4.832-0.913
		c-3.327-0.894-6.515-2.17-9.595-3.712C564.581,217.108,563.816,216.666,563,216.226z"/>
	<path fill="#FAAA64" d="M549.109,194.425c-1.177-2.253-2.384-4.491-3.518-6.767c-0.558-1.121-0.985-2.306-1.453-3.473
		c-0.077-0.188-0.118-0.42-0.09-0.62c0.497-3.522,1.495-6.896,3.038-10.105c0.031-0.066,0.086-0.118,0.216-0.287
		c-0.439,7.245,0.177,14.267,2.064,21.164C549.281,194.366,549.195,194.396,549.109,194.425z"/>
	<path fill="#FAAA64" d="M567.267,156.437c1.852,0.463,3.664,0.878,5.452,1.372c2.749,0.762,5.403,1.785,7.977,3.012
		c0.23,0.108,0.503,0.3,0.579,0.516c0.406,1.123,0.756,2.263,1.175,3.553c-5.075-2.914-10.305-5.028-15.96-6.293
		C566.753,157.869,566.992,157.2,567.267,156.437z"/>
	<path fill="#FAAA64" d="M596.23,170.235c2.133,0.981,4.326,1.854,6.388,2.973c2.373,1.292,4.63,2.803,6.94,4.214
		c0.415,0.255,0.711,0.563,0.826,1.071c0.231,1.025,0.524,2.036,0.678,3.114c-0.738-0.529-1.453-1.102-2.227-1.577
		c-2.272-1.397-4.553-2.782-6.863-4.114c-0.861-0.501-1.7-0.932-2.361-1.759c-1.06-1.326-2.305-2.502-3.469-3.741
		C596.17,170.355,596.2,170.294,596.23,170.235z"/>
	<path fill="#FAAA64" d="M584.369,169.76c-1.057-5.564-2.871-10.667-5.502-15.636c0.928,0.073,1.754,0.126,2.582,0.217
		c0.11,0.013,0.228,0.197,0.3,0.323c1.931,3.348,3.392,6.896,4.56,10.572c0.051,0.158,0.082,0.369,0.019,0.502
		C585.715,167.032,585.081,168.31,584.369,169.76z"/>
	<path fill="#FAAA64" d="M584.41,181.417c-6.077-5.494-12.931-9.459-20.66-12.01c0.041-0.266,0.079-0.513,0.123-0.756
		c0.043-0.248,0.092-0.496,0.158-0.836c1.396,0.51,2.749,0.971,4.077,1.499c5.488,2.181,10.479,5.204,15.038,8.946
		c0.138,0.114,0.241,0.279,0.393,0.358C584.707,179.234,584.543,180.271,584.41,181.417z"/>
	<path fill="#FAAA64" d="M585.992,218.083c8.459-3.158,15.822-7.875,22.133-14.313c-0.237,0.516-0.448,1.046-0.717,1.543
		c-0.954,1.763-2.183,3.329-3.744,4.576c-1.681,1.346-3.425,2.628-5.22,3.821c-2.832,1.884-5.9,3.34-9.062,4.586
		c-0.339,0.134-0.769,0.083-1.148,0.051C587.483,218.283,586.738,218.171,585.992,218.083z"/>
	<path fill="#FAAA64" d="M579.183,202.507c-0.621,1.686-0.613,1.669-2.157,1.007c-3.407-1.461-6.59-3.321-9.637-5.42
		c-0.127-0.088-0.242-0.207-0.381-0.274c-1.657-0.79-2.219-2.248-2.443-3.93c-0.064-0.505-0.194-1.002-0.332-1.679
		C568.734,196.483,573.657,199.915,579.183,202.507z"/>
	<path fill="#FAAA64" d="M563.402,171.519c0.074-0.467,0.139-0.871,0.212-1.34c0.795,0.271,1.558,0.503,2.298,0.789
		c4.873,1.863,9.439,4.293,13.609,7.435c1.362,1.03,2.617,2.203,4.001,3.201c1.04,0.752,0.903,1.682,0.708,2.795
		C578.196,178.58,571.287,174.299,563.402,171.519z"/>
	<path fill="#FAAA64" d="M578.095,204.796c-0.532,0.91-1.03,1.769-1.555,2.67c-0.929-0.442-1.873-0.8-2.72-1.311
		c-2.185-1.322-4.326-2.705-6.479-4.078c-0.187-0.119-0.374-0.311-0.45-0.513c-0.446-1.212-0.862-2.435-1.23-3.705
		C569.531,200.642,573.619,202.981,578.095,204.796z"/>
	<path fill="#FAAA64" d="M605.65,197.478c-1.338-3.953-2.997-7.658-5.109-11.141c-1.106-1.824-2.384-3.545-3.61-5.295
		c-0.257-0.364-0.443-0.7-0.423-1.167c0.026-0.664-0.02-1.331-0.042-2.192c0.569,0.731,1.03,1.323,1.493,1.916
		c3.287,4.204,5.855,8.812,7.778,13.785c0.298,0.769,0.541,1.559,0.859,2.32c0.175,0.41,0.104,0.697-0.204,0.983
		C606.151,196.911,605.939,197.166,605.65,197.478z"/>
	<path fill="#FAAA64" d="M580.599,159.915c-4.145-1.876-8.442-3.267-12.931-4.223c0.491-0.15,0.98-0.314,1.475-0.446
		c2.788-0.738,5.629-1.074,8.509-1.103c0.159-0.002,0.405,0.104,0.468,0.229c0.892,1.787,1.754,3.587,2.628,5.383
		C580.698,159.808,580.648,159.862,580.599,159.915z"/>
	<path fill="#FAAA64" d="M587.365,210.918c2.122-3.146,3.876-6.487,5.469-10.051c0.896,1.842,1.791,3.685,2.76,5.673
		c-2.765,1.566-5.43,3.077-8.095,4.587C587.456,211.055,587.411,210.987,587.365,210.918z"/>
	<path fill="#FAAA64" d="M565.851,160.593c0.404-1.581,0.31-1.318,1.489-1.026c5.272,1.306,10.249,3.344,14.929,6.104
		c0.329,0.194,0.53,0.418,0.593,0.805c0.087,0.521,0.23,1.033,0.342,1.552c0.007,0.03-0.025,0.066-0.055,0.136
		C577.815,164.673,572.069,162.135,565.851,160.593z"/>
	<path fill="#FAAA64" d="M596.099,188.016c0.925,1.672,1.869,3.167,2.604,4.759c1.061,2.313,1.993,4.689,2.935,7.056
		c0.53,1.328,0.487,1.343-0.594,2.281c-0.086,0.076-0.18,0.144-0.298,0.239c-0.514-1.256-0.948-2.513-1.526-3.698
		c-1.128-2.306-2.342-4.565-3.502-6.853c-0.121-0.236-0.17-0.55-0.134-0.81C595.718,190.05,595.903,189.117,596.099,188.016z"/>
	<path fill="#FAAA64" d="M603.022,165.534c-1.116-0.423-2.217-0.892-3.352-1.255c-1.963-0.627-3.938-1.203-5.919-1.764
		c-0.359-0.103-0.58-0.239-0.686-0.603c-0.092-0.32-0.199-0.645-0.368-0.929c-0.302-0.51-0.016-0.901,0.217-1.299
		c0.048-0.084,0.271-0.125,0.395-0.097c1.379,0.293,2.763,0.59,4.134,0.923c0.273,0.066,0.522,0.268,0.754,0.445
		C599.958,162.306,601.622,163.764,603.022,165.534z"/>
	<path fill="#FAAA64" d="M575.976,208.198c-0.456,0.739-0.958,1.55-1.502,2.433c-1.587-0.856-3.083-1.661-4.578-2.474
		c-0.085-0.046-0.184-0.108-0.219-0.188c-0.714-1.519-1.419-3.04-2.15-4.617C570.409,205.008,573.19,206.6,575.976,208.198z"/>
	<path fill="#FAAA64" d="M606.473,169.845c-2.027-0.919-3.91-1.856-5.854-2.629c-1.874-0.744-3.809-1.341-5.732-1.953
		c-0.518-0.164-0.864-0.364-0.956-0.931c-0.056-0.323-0.197-0.632-0.348-1.096c0.846,0.22,1.604,0.361,2.324,0.613
		c2.592,0.907,5.164,1.856,7.748,2.776c0.537,0.193,0.949,0.5,1.265,0.984C605.396,168.344,605.917,169.049,606.473,169.845z"/>
	<path fill="#FAAA64" d="M587.005,164.349c-1.411-3.258-2.823-6.523-4.226-9.767c0.877-0.206,1.857,0.192,2.302,1.086
		c0.966,1.949,1.921,3.903,2.844,5.874c0.12,0.259,0.117,0.66,0.005,0.929C587.661,163.14,587.298,163.77,587.005,164.349z"/>
	<path fill="#FAAA64" d="M558.772,216.354c-4.396-2.978-7.886-6.732-10.453-11.351c0.274,0.299,0.548,0.601,0.822,0.9
		c0.291,0.316,0.578,0.639,0.873,0.956c2.171,2.334,4.518,4.473,7.098,6.353c0.697,0.505,1.396,1.014,2.111,1.496
		c0.302,0.205,0.398,0.401,0.176,0.716C559.196,215.708,559.009,216.006,558.772,216.354z"/>
	<path fill="#FAAA64" d="M601.796,176.797c2.566,1.145,4.917,2.636,7.198,4.247c0.498,0.35,0.979,0.724,1.476,1.079
		c0.594,0.423,1.076,0.9,1.045,1.71c-0.01,0.271,0.043,0.543,0.076,0.902c-0.699-0.522-1.316-1.021-1.97-1.466
		c-1.708-1.151-3.443-2.263-5.147-3.421c-0.441-0.301-0.856-0.674-1.2-1.081C602.744,178.143,602.284,177.459,601.796,176.797z"/>
	<path fill="#FAAA64" d="M574.593,221.988c-4.457-0.421-8.693-1.573-12.692-3.776c0.239-0.428,0.482-0.864,0.75-1.341
		C566.448,219.071,570.453,220.688,574.593,221.988z"/>
	<path fill="#FAAA64" d="M588.64,161.05c-0.992-2.031-1.933-3.956-2.921-5.977c0.824,0.229,1.603,0.439,2.376,0.664
		c0.279,0.082,0.548,0.239,0.833,0.277c0.818,0.117,1.087,0.74,1.339,1.381c0.036,0.097,0.029,0.239-0.017,0.333
		C589.731,158.819,589.197,159.904,588.64,161.05z"/>
	<path fill="#FAAA64" d="M594.589,195.381c1.639,2.688,2.815,5.447,3.919,8.244c0.133,0.34,0.133,0.587-0.215,0.791
		c-0.216,0.124-0.397,0.303-0.627,0.485c-0.573-1.302-1.1-2.563-1.679-3.796c-0.558-1.192-1.183-2.348-1.746-3.535
		c-0.113-0.238-0.134-0.561-0.084-0.821C594.241,196.314,594.419,195.901,594.589,195.381z"/>
	<path fill="#FAAA64" d="M599.324,203.598c-1.264-3.231-2.64-6.262-4.346-9.132c-0.062-0.105-0.102-0.26-0.079-0.376
		c0.097-0.477,0.222-0.948,0.377-1.58c0.439,0.788,0.808,1.442,1.17,2.098c1.402,2.549,2.506,5.229,3.514,7.955
		C600.205,203.217,599.564,203.196,599.324,203.598z"/>
	<path fill="#FAAA64" d="M611.798,187.806c-1.232-0.952-2.379-1.84-3.526-2.729c-0.232-0.18-0.448-0.406-0.708-0.525
		c-1.519-0.691-1.886-2.267-2.686-3.554c0.372,0.22,0.763,0.413,1.112,0.662c1.585,1.124,3.149,2.281,4.746,3.387
		c0.674,0.468,1.135,0.99,1.035,1.87C611.74,187.18,611.786,187.452,611.798,187.806z"/>
	<path fill="#FAAA64" d="M593.706,198.159c0.617,1.231,1.199,2.335,1.725,3.472c0.452,0.978,0.844,1.987,1.242,2.99
		c0.336,0.852,0.32,0.856-0.55,1.332c-0.47-0.994-0.925-1.992-1.407-2.974c-0.413-0.846-0.82-1.701-1.302-2.509
		c-0.271-0.453-0.328-0.833-0.076-1.297C593.486,198.905,593.554,198.593,593.706,198.159z"/>
	<path fill="#FAAA64" d="M611.125,190.212c-2.14-0.98-3.094-2.819-3.865-4.961c1.043,0.802,2.003,1.533,2.955,2.279
		c0.43,0.341,0.824,0.731,1.266,1.057c0.375,0.276,0.375,0.545,0.12,0.89C611.417,189.73,611.26,190.004,611.125,190.212z"/>
	<path fill="#FAAA64" d="M591.106,218.576c2.837-1.512,5.751-3.068,8.562-4.57c-0.391,0.335-0.862,0.811-1.396,1.188
		c-1.361,0.959-2.735,1.91-4.145,2.794C593.001,218.695,592.415,218.75,591.106,218.576z"/>
	<path fill="#FAAA64" d="M572.507,213.118c-0.724-1.269-1.407-2.468-2.164-3.793c1.29,0.668,2.429,1.259,3.619,1.876
		C573.483,211.833,573.026,212.431,572.507,213.118z"/>
	<path fill="#FFFFFF" d="M593.371,158.803c0.104-0.252,0.182-0.447,0.29-0.714c0.625,0.347,1.204,0.669,1.784,0.989
		c-0.018,0.041-0.036,0.083-0.055,0.125C594.749,159.076,594.107,158.949,593.371,158.803z"/>
	<path fill="#FAAA64" d="M610.667,190.973c-0.192,0.274-0.365,0.52-0.604,0.856c-0.244-0.621-0.455-1.153-0.663-1.679
		c0.03-0.029,0.06-0.059,0.092-0.091C609.873,190.355,610.254,190.652,610.667,190.973z"/>
</g>
<g>
	<path fill="#739731" d="M317.712,121.292c7.267,4.814,12.801,11.196,16.994,18.792c2.319,4.201,4.097,8.623,5.361,13.253
		c0.215,0.789,0.434,1.598,1.23,2.375c3.435-9.744,8.321-18.445,14.71-26.237c4.343-5.299,9.512-9.77,15.244-13.544
		c1.045-0.687,1.903-1.706,3.203-1.99c1.841-0.387,3.348-1.404,5.323-2.666c-2.41-0.384-3.998,0.14-5.368,1.451
		c-3.512,1.121-6.489,3.235-9.458,5.29c-9.375,6.49-17.456,14.388-24.703,23.163c-0.221,0.269-0.464,0.524-0.726,0.751
		c-0.089,0.076-0.267,0.05-0.671,0.112c0.131-1.61,0.221-3.171,0.393-4.722c1.065-9.598,3.377-18.822,8.452-27.163
		c6.27-10.305,15.462-16.527,27.151-19.184c5.488-1.247,11.063-1.991,16.668-1.509c6.822,0.587,13.614,1.443,20.219,3.509
		c3.888,1.214,7.804,2.261,11.712,4.574c-2.713,0.584-5.074,0.981-7.367,1.726c-5.647,1.834-9.322,5.833-12.261,10.669
		c-3.29,5.417-5.364,11.393-7.662,17.265c-2.541,6.487-5.189,12.952-10.026,18.159c-3.434,3.694-7.585,6.096-12.605,7.229
		c-3.04,0.685-6.033,0.754-9.058,0.677c-4.767-0.121-9.387-1.24-13.917-2.634c-1.406-0.434-2.022-0.188-2.653,1.085
		c-3.638,7.339-4.903,15.157-4.626,23.242c0.242,7.096,1.403,14.058,3.66,20.82c0.26,0.779,0.576,1.784-0.086,2.441
		c-0.587,0.582-1.303-0.106-1.954-0.322c-5.974-1.966-8.56-5.409-8.76-11.675c-0.179-5.61,0.563-11.105,1.406-16.654
		c0.705-4.634,0.601-9.423-0.416-14.174c-1.326-6.206-3.802-11.731-7.831-16.616c-0.883-1.071-1.761-1.427-3.102-1.149
		c-4.199,0.873-8.44,1.135-12.69,0.436c-7.431-1.223-11.888-6.151-15.26-12.392c-1.195-2.211-2.359-4.439-3.548-6.652
		c-3.333-6.209-8.127-10.415-16.015-11.037c2.212-1.375,4.157-1.827,6.036-2.253c7.04-1.598,14.192-2.162,21.379-1.444
		c11.741,1.173,21.176,6.104,26.468,17.189c1.645,3.445,2.773,7.117,2.979,11.534c-2.374-2.051-4.352-3.696-6.257-5.419
		c-3.145-2.846-6.83-4.89-10.39-7.123c-1.792-2.183-8.561-4.954-10.266-4.189C311.432,118.375,314.534,119.904,317.712,121.292z"/>
</g>
</svg>
